<svg width="413" height="305" viewBox="0 0 413 305" fill="none" xmlns="http://www.w3.org/2000/svg">
<g opacity="0.8" clip-path="url(#clip0_50_973)">
<path d="M63.9659 294.704C91.1248 290.199 117.76 282.983 144.719 277.444C148.963 276.549 153.206 275.652 157.448 274.752C156.921 274.853 155.735 274.999 155.546 275.056C157.199 275.004 158.791 274.415 160.081 273.378C161.37 272.341 162.287 270.913 162.693 269.309C164.124 258.165 152.894 259.748 145.318 261.001C148.499 260.46 130.565 263.265 137.583 262.193C120.455 265.196 92.3267 271.516 75.4744 274.985C81.8769 266.827 88.0707 258.506 94.2407 250.171C111.662 226.128 123.28 211.208 139.567 186.32C150.867 169.073 158.715 155.842 167.707 157.178C180.504 159.284 223.046 186.282 250.724 189.99C272.952 189.726 265.367 161.54 266.801 146.907C266.323 105.444 264.851 56.8106 284.114 40.6372C298.589 31.0098 328.213 27.4795 351.483 22.9087C353.355 22.3046 354.965 21.0809 356.048 19.4391C357.131 17.7973 357.623 15.8355 357.442 13.877C357.261 11.9184 356.418 10.08 355.052 8.66476C353.686 7.2495 351.879 6.34183 349.928 6.09134C333.581 8.26412 317.396 11.5161 301.479 15.8261C285.595 19.3875 270.12 26.7439 262.776 42.1078C242.494 81.6678 253.8 128.267 249.761 170.949C249.668 171.404 249.558 171.967 249.453 172.546C239.383 170.54 211.292 157.089 191.048 147.863C178.623 141.828 160.19 134.37 145.408 150.982C136.21 161.81 127.886 173.351 120.515 185.496C108.823 202.429 94.8688 220.977 79.5679 241.56C78.007 243.643 76.4146 245.701 74.8432 247.775C75.8235 232.138 75.5992 216.449 74.1722 200.847C73.674 199.277 72.703 197.9 71.392 196.904C70.081 195.908 68.4941 195.341 66.8486 195.281C65.203 195.221 63.5792 195.672 62.1993 196.57C60.8194 197.469 59.751 198.772 59.1401 200.301C58.2585 214.505 59.0447 229.289 57.7477 243.675C57.4086 252.534 56.0422 267.752 55.4318 273.655C55.0519 274.681 54.9383 275.787 55.1016 276.869C54.4344 283.009 51.2411 293.801 63.9659 294.704Z" fill="#4DA4E0"/>
</g>
<defs>
<clipPath id="clip0_50_973">
<rect width="369" height="207" fill="white" transform="matrix(-0.957996 0.286782 0.286782 0.957996 353.5 0)"/>
</clipPath>
</defs>
</svg>
