<svg width="243" height="236" viewBox="0 0 243 236" fill="none" xmlns="http://www.w3.org/2000/svg">
<g opacity="0.8" clip-path="url(#clip0_50_969)">
<path d="M31.9721 206.562C31.1759 204.76 31.0365 202.735 31.5781 200.84C32.4699 197.095 33.5601 193.399 34.8442 189.77C37.4261 181.964 40.6165 174.374 44.3859 167.067C44.9385 166.559 45.6215 166.215 46.3585 166.072C47.0956 165.93 47.8578 165.995 48.56 166.26C49.2623 166.526 49.877 166.981 50.3355 167.575C50.794 168.17 51.0783 168.88 51.1567 169.627C50.2341 173.63 48.9637 177.546 47.3599 181.328C45.8156 185.296 43.1636 193.771 41.6477 198.818C41.7188 198.795 41.7943 198.768 41.8643 198.745C42.4059 198.493 44.2187 197.905 45.123 197.621C51.7761 194.655 58.1613 191.121 64.6246 187.767C103.034 167.786 134.658 147.125 165.999 118.06C167.405 116.786 168.918 115.379 170.411 113.954C160.08 118.118 149.808 122.425 139.514 126.68C136.31 127.998 133.097 129.297 129.832 130.454C127.838 131.421 125.587 131.722 123.41 131.312C113.103 127.027 127.188 115.246 130.221 109.885C141.677 95.5351 151.949 80.2786 160.934 64.2654C170.546 46.0238 176.816 26.209 179.446 5.75837C179.473 5.07734 179.666 4.41325 180.008 3.82382C180.351 3.23439 180.832 2.73745 181.41 2.37621C181.988 2.01496 182.645 1.80033 183.325 1.75098C184.005 1.70163 184.686 1.81904 185.31 2.09301C189.59 4.03784 187.047 9.40805 186.869 12.9998C185.343 23.2212 182.816 33.2677 179.321 42.9937C173.024 61.1288 164.102 78.2427 152.839 93.7891C146.485 102.975 139.399 111.649 132.812 120.663C145.691 115.929 161.86 108.273 175.908 103.4C179.476 101.919 186.025 100.636 186.014 106.323C185.244 110.496 181.288 113.311 178.741 116.5C147.612 147.417 111.808 173.238 72.6448 193.014C65.9851 196.78 54.6545 202.013 49.5696 204.087C58.9135 205.997 68.3653 207.334 77.8722 208.092C78.4398 208.125 78.9939 208.278 79.4982 208.541C80.0026 208.803 80.4457 209.169 80.7986 209.615C81.1515 210.061 81.4061 210.576 81.5457 211.127C81.6854 211.678 81.7069 212.253 81.6089 212.813C81.5109 213.373 81.2955 213.905 80.977 214.376C80.6585 214.847 80.244 215.246 79.7607 215.545C79.2775 215.844 78.7363 216.038 78.1728 216.114C77.6094 216.189 77.0363 216.145 76.4912 215.983C65.7308 215.085 55.0199 213.639 44.3901 211.747C41.7771 211.371 39.1936 210.812 36.6586 210.075C34.7037 209.549 33.0259 208.291 31.9721 206.562ZM129.84 130.451L129.832 130.454L129.812 130.461L129.84 130.451ZM130.012 130.387C130.742 130.119 130.893 130.055 130.012 130.387ZM130.012 130.387L129.84 130.451L129.891 130.433L130.012 130.387Z" fill="#4DA4E0"/>
</g>
<defs>
<clipPath id="clip0_50_969">
<rect width="252.316" height="85.8345" fill="white" transform="translate(242.618 62.5332) rotate(136.764)"/>
</clipPath>
</defs>
</svg>
