<svg width="181" height="193" viewBox="0 0 181 193" fill="none" xmlns="http://www.w3.org/2000/svg">
<g clip-path="url(#clip0_76_4533)">
<path d="M31.3638 192.612C28.1474 192.152 7.93833 186.219 1.30752 178.596C0.306615 177.009 -0.0297984 175.093 0.370925 173.261C0.771649 171.429 1.87735 169.828 3.44925 168.804C8.70333 164.609 14.1084 160.607 19.4476 156.523C22.5276 154.754 25.1604 150.506 29.0738 151.351C29.899 151.596 30.6356 152.075 31.1942 152.729C31.7528 153.383 32.1095 154.186 32.221 155.039C32.3326 155.892 32.1943 156.759 31.8228 157.535C31.4513 158.311 30.8626 158.962 30.128 159.411C23.9315 164.29 17.7587 168.655 12.6932 172.716C31.4898 170.194 50.0395 166.089 68.1444 160.444C84.9473 155.073 98.8784 150.664 109.88 139.728C116.897 132.981 121.993 124.491 124.646 115.127C120.741 115.78 116.74 115.547 112.938 114.443C109.137 113.34 105.632 111.395 102.686 108.753C101.304 107.689 100.179 106.328 99.3935 104.771C98.6085 103.214 98.1836 101.5 98.1501 99.7572C98.1167 98.014 98.4756 96.2855 99.2003 94.6995C99.925 93.1135 100.997 91.7105 102.337 90.5941C106.084 87.4933 110.767 85.7459 115.63 85.6344C118.604 85.3064 121.613 85.7598 124.358 86.9498C127.103 88.1398 129.489 90.0252 131.282 92.4196C133.258 96.2156 134.211 100.46 134.049 104.736C155.896 92.8203 170.171 60.2639 171.33 35.2985C171.98 26.4042 171.852 17.4703 170.948 8.5983C170.932 8.4327 170.906 8.26789 170.902 8.10152C171.227 10.0248 170.774 7.20753 170.585 5.57283C170.464 5.03328 170.442 4.47635 170.519 3.92879C170.553 3.45004 170.696 2.98532 170.936 2.56952C171.176 2.15372 171.507 1.79764 171.904 1.52802C172.381 1.16362 172.939 0.921107 173.531 0.82157C174.123 0.722032 174.73 0.768481 175.3 0.956879C175.87 1.14528 176.385 1.46992 176.8 1.90258C177.216 2.33524 177.519 2.86281 177.685 3.43944C177.95 4.70501 178.25 5.96733 178.465 7.24404C179.628 13.5798 180.195 20.0106 180.158 26.4521C180.39 50.4151 172.674 73.7802 158.214 92.8966C151.833 101.55 143.284 108.373 133.428 112.677C130.461 127.343 122.138 140.38 110.081 149.251C96.102 159.541 78.8696 163.913 62.4394 168.699C47.2594 173.107 31.743 176.262 16.0464 178.132C20.8483 180.498 26.7214 182.993 30.8953 185.032C32.6374 186.005 32.3086 185.634 33.3974 186.33C34.0999 186.617 34.6933 187.12 35.0924 187.765C35.4097 188.333 35.5534 188.982 35.5058 189.63C35.4583 190.279 35.2215 190.9 34.8248 191.415C34.4281 191.931 33.8888 192.319 33.2737 192.532C32.6586 192.745 31.9946 192.772 31.3638 192.612ZM125.848 108.282C125.985 106.571 126.016 104.854 125.939 103.141C125.642 97.101 124.208 95.2513 119.611 93.6334C114.004 92.3563 106.222 95.1902 105.486 98.642C103.02 103.49 115.224 111.278 125.848 108.282Z" fill="#4DA4E0"/>
</g>
<defs>
<clipPath id="clip0_76_4533">
<rect width="192" height="180" fill="white" transform="matrix(0 1 1 0 0.15918 0.749023)"/>
</clipPath>
</defs>
</svg>
