<svg width="346" height="330" viewBox="0 0 346 330" fill="none" xmlns="http://www.w3.org/2000/svg">
<g opacity="0.8" clip-path="url(#clip0_50_971)">
<path d="M337.368 231.622C337.478 236.747 333.428 269.729 323.249 282.013C321.033 283.98 318.133 284.997 315.174 284.845C312.215 284.693 309.434 283.385 307.433 281.202C299.543 274.105 291.914 266.724 284.173 259.466C280.624 255.128 273.324 252.125 273.636 245.816C273.805 244.469 274.361 243.199 275.238 242.161C276.115 241.123 277.274 240.361 278.575 239.968C279.876 239.574 281.263 239.566 282.568 239.945C283.873 240.323 285.041 241.071 285.928 242.099C295.128 250.486 303.52 258.969 311.155 265.807C302.388 237.202 291.217 209.388 277.761 182.663C265.066 157.895 254.609 137.348 234.732 123.043C222.408 113.86 207.862 108.116 192.584 106.399C194.606 112.307 195.271 118.596 194.528 124.797C193.786 130.998 191.656 136.953 188.295 142.22C186.992 144.645 185.16 146.747 182.934 148.37C180.709 149.993 178.147 151.095 175.438 151.597C172.729 152.098 169.942 151.984 167.283 151.265C164.625 150.546 162.162 149.239 160.077 147.441C154.279 142.408 150.351 135.569 148.926 128.029C147.649 123.484 147.582 118.685 148.732 114.106C149.881 109.527 152.206 105.327 155.478 101.92C160.887 97.8672 167.258 95.2898 173.966 94.4412C149.771 63.5074 95.3473 49.6775 56.1301 54.3039C42.0977 55.5843 28.2035 58.0851 14.6054 61.778C14.3514 61.8459 14.101 61.9276 13.8428 61.9771C16.7575 60.9762 12.482 62.4068 9.98229 63.1219C9.17229 63.4491 8.30989 63.6277 7.43652 63.6491C6.68132 63.7188 5.92019 63.6166 5.21028 63.3503C4.50037 63.0839 3.86012 62.6604 3.3376 62.1114C2.64693 61.4634 2.12522 60.6565 1.81782 59.7611C1.51043 58.8656 1.42667 57.9086 1.57381 56.9733C1.72096 56.0379 2.09456 55.1526 2.66213 54.3943C3.2297 53.6359 3.97405 53.0275 4.83048 52.6219C6.73524 51.8834 8.62582 51.0908 10.5607 50.4268C20.1384 46.9841 30.0177 44.4454 40.0689 42.844C77.3652 36.3085 115.774 42.2993 149.294 59.8803C164.426 67.5824 177.26 79.13 186.505 93.3617C210.131 94.2014 232.596 103.796 249.525 120.277C269.162 139.383 280.41 165.077 292.097 189.416C302.873 211.907 311.782 235.244 318.735 259.193C321.188 251.11 323.567 241.326 325.672 234.304C326.741 231.342 326.247 231.949 327.052 230.076C327.319 228.908 327.95 227.855 328.853 227.068C329.657 226.427 330.631 226.037 331.655 225.944C332.678 225.85 333.707 226.059 334.612 226.544C335.518 227.028 336.262 227.768 336.752 228.67C337.242 229.573 337.456 230.599 337.368 231.622ZM181.602 106.291C178.901 106.518 176.217 106.913 173.565 107.474C164.226 109.492 161.711 112.2 160.372 119.773C159.823 128.828 166.242 140.21 171.813 140.466C180.005 143.055 189.006 122.055 181.602 106.291Z" fill="#4DA4E0"/>
</g>
<defs>
<clipPath id="clip0_50_971">
<rect width="303.37" height="283.954" fill="white" transform="matrix(0.986618 -0.163048 -0.163048 -0.986618 46.2981 329.618)"/>
</clipPath>
</defs>
</svg>
