<svg width="424" height="356" viewBox="0 0 424 356" fill="none" xmlns="http://www.w3.org/2000/svg">
<g opacity="0.8" clip-path="url(#clip0_96_411)">
<path d="M414.026 176.333C391.509 160.493 367.463 146.953 344.364 131.99C340.712 129.652 337.058 127.315 333.404 124.98C333.85 125.278 334.798 126.006 334.973 126.098C333.757 124.975 332.209 124.279 330.563 124.113C328.917 123.948 327.262 124.323 325.847 125.181C317.01 132.12 326.125 138.869 332.404 143.29C329.757 141.444 344.506 152.025 338.752 147.866C353.066 157.74 377.547 172.966 391.992 182.314C381.706 183.638 371.455 185.224 361.21 186.837C331.93 191.753 313.183 194.237 284.118 200.551C263.966 204.917 249.091 208.842 243.62 201.583C235.976 191.105 224.593 142.022 207.467 119.965C191.44 104.561 177.075 129.971 165.789 139.394C137.046 169.281 103.981 204.976 78.9073 202.991C61.8373 199.699 38.2474 181.436 18.4562 168.371C16.6984 167.489 14.6923 167.231 12.7686 167.642C10.8449 168.052 9.11837 169.105 7.87363 170.628C6.62889 172.151 5.94017 174.053 5.92099 176.02C5.9018 177.987 6.5533 179.901 7.7681 181.448C20.9428 191.366 34.7594 200.401 49.1272 208.494C62.9459 217.097 79.1355 222.709 95.1465 216.91C137.352 202.942 161.98 161.799 194.797 134.211C195.183 133.952 195.656 133.628 196.138 133.289C201.907 141.782 212.493 171.073 220.45 191.849C225.073 204.866 232.979 223.111 255.167 221.64C269.318 220.374 283.346 217.987 297.118 214.502C317.33 210.635 340.285 207.203 365.628 203.266C368.202 202.876 370.78 202.526 373.355 202.15C361.688 212.607 350.843 223.947 340.916 236.068C340.17 237.536 339.896 239.199 340.132 240.828C340.367 242.458 341.101 243.975 342.232 245.172C343.363 246.369 344.836 247.187 346.449 247.514C348.063 247.842 349.739 247.663 351.247 247.001C361.839 237.496 371.648 226.408 382.663 217.064C389.119 210.988 400.768 201.1 405.344 197.321C406.334 196.856 407.191 196.148 407.833 195.262C412.616 191.354 422.462 185.902 414.026 176.333Z" fill="white"/>
</g>
<defs>
<clipPath id="clip0_96_411">
<rect width="369" height="207" fill="white" transform="matrix(0.883949 0.467583 0.467583 -0.883949 0.948746 183.284)"/>
</clipPath>
</defs>
</svg>
