<svg width="406" height="180" viewBox="0 0 406 180" fill="none" xmlns="http://www.w3.org/2000/svg">
<g clip-path="url(#clip0_106_412)">
<path d="M111.976 179.908C109.814 179.599 96.2293 175.613 91.7719 170.49C91.0991 169.425 90.8729 168.137 91.1423 166.906C91.4117 165.675 92.155 164.6 93.2116 163.911C96.7436 161.093 100.377 158.405 103.966 155.66C106.037 154.472 107.806 151.618 110.437 152.186C110.992 152.35 111.487 152.672 111.862 153.111C112.238 153.551 112.478 154.09 112.553 154.663C112.628 155.236 112.535 155.819 112.285 156.34C112.035 156.862 111.639 157.299 111.146 157.601C106.98 160.879 102.831 163.811 99.4256 166.54C112.061 164.845 124.531 162.087 136.701 158.295C147.996 154.686 157.361 151.724 164.757 144.376C169.474 139.843 172.899 134.139 174.683 127.848C172.058 128.286 169.368 128.129 166.813 127.388C164.257 126.647 161.901 125.34 159.92 123.565C158.991 122.85 158.235 121.936 157.708 120.889C157.18 119.843 156.894 118.692 156.872 117.521C156.849 116.35 157.09 115.188 157.578 114.123C158.065 113.057 158.785 112.114 159.686 111.364C162.205 109.281 165.353 108.107 168.622 108.032C170.621 107.812 172.644 108.116 174.489 108.916C176.334 109.715 177.939 110.982 179.144 112.591C180.472 115.141 181.113 117.993 181.003 120.866C195.69 112.86 205.285 90.9863 206.065 74.2126C206.502 68.2368 206.416 62.2343 205.808 56.2735C205.797 56.1622 205.78 56.0515 205.777 55.9397C205.995 57.2319 205.691 55.339 205.564 54.2407C205.483 53.8782 205.468 53.504 205.519 53.1361C205.543 52.8145 205.638 52.5022 205.8 52.2229C205.961 51.9435 206.184 51.7043 206.451 51.5231C206.771 51.2783 207.147 51.1153 207.544 51.0485C207.942 50.9816 208.35 51.0128 208.733 51.1394C209.116 51.266 209.463 51.4841 209.742 51.7748C210.021 52.0655 210.225 52.4199 210.337 52.8073C210.515 53.6577 210.717 54.5058 210.861 55.3636C211.643 59.6204 212.024 63.9411 211.999 68.269C212.155 84.3691 206.968 100.068 197.248 112.911C192.958 118.726 187.212 123.309 180.586 126.201C178.592 136.055 172.997 144.814 164.892 150.774C155.495 157.688 143.911 160.626 132.866 163.841C122.662 166.803 112.231 168.922 101.68 170.179C104.908 171.768 108.856 173.445 111.661 174.815C112.833 175.468 112.612 175.219 113.343 175.687C113.816 175.88 114.215 176.218 114.483 176.651C114.696 177.033 114.793 177.468 114.761 177.904C114.729 178.34 114.57 178.757 114.303 179.104C114.036 179.45 113.674 179.711 113.26 179.854C112.847 179.997 112.4 180.015 111.976 179.908ZM175.491 123.248C175.583 122.099 175.604 120.946 175.552 119.794C175.353 115.736 174.389 114.493 171.298 113.406C167.529 112.548 162.298 114.452 161.803 116.772C160.145 120.029 168.349 125.261 175.491 123.248Z" fill="#4DA4E0"/>
</g>
<path d="M12.15 30.3C9.95 30.3 8.06 29.86 6.48 28.98C4.92 28.08 3.72 26.82 2.88 25.2C2.04 23.56 1.62 21.63 1.62 19.41C1.62 17.75 1.86 16.26 2.34 14.94C2.82 13.6 3.51 12.46 4.41 11.52C5.31 10.56 6.41 9.83 7.71 9.33C9.03 8.81 10.51 8.55 12.15 8.55C13.25 8.55 14.33 8.69 15.39 8.97C16.45 9.25 17.38 9.65 18.18 10.17C18.6 10.43 18.88 10.75 19.02 11.13C19.16 11.49 19.19 11.85 19.11 12.21C19.03 12.55 18.86 12.84 18.6 13.08C18.36 13.32 18.05 13.46 17.67 13.5C17.31 13.52 16.91 13.39 16.47 13.11C15.85 12.71 15.18 12.42 14.46 12.24C13.74 12.06 13.01 11.97 12.27 11.97C10.85 11.97 9.65 12.26 8.67 12.84C7.69 13.42 6.95 14.26 6.45 15.36C5.95 16.46 5.7 17.81 5.7 19.41C5.7 20.99 5.95 22.34 6.45 23.46C6.95 24.58 7.69 25.43 8.67 26.01C9.65 26.59 10.85 26.88 12.27 26.88C13.03 26.88 13.78 26.79 14.52 26.61C15.26 26.41 15.96 26.11 16.62 25.71C17.06 25.45 17.45 25.34 17.79 25.38C18.15 25.4 18.45 25.52 18.69 25.74C18.93 25.96 19.09 26.24 19.17 26.58C19.25 26.9 19.23 27.24 19.11 27.6C18.99 27.94 18.75 28.24 18.39 28.5C17.59 29.08 16.63 29.53 15.51 29.85C14.41 30.15 13.29 30.3 12.15 30.3ZM27.3506 30.3C25.6906 30.3 24.4406 29.83 23.6006 28.89C22.7606 27.93 22.3406 26.53 22.3406 24.69V10.5C22.3406 9.88 22.5006 9.41 22.8206 9.09C23.1406 8.77 23.6006 8.61 24.2006 8.61C24.8006 8.61 25.2606 8.77 25.5806 9.09C25.9206 9.41 26.0906 9.88 26.0906 10.5V24.51C26.0906 25.43 26.2806 26.11 26.6606 26.55C27.0606 26.99 27.6206 27.21 28.3406 27.21C28.5006 27.21 28.6506 27.21 28.7906 27.21C28.9306 27.19 29.0706 27.17 29.2106 27.15C29.4906 27.11 29.6806 27.19 29.7806 27.39C29.8806 27.57 29.9306 27.95 29.9306 28.53C29.9306 29.03 29.8306 29.42 29.6306 29.7C29.4306 29.98 29.1006 30.15 28.6406 30.21C28.4406 30.23 28.2306 30.25 28.0106 30.27C27.7906 30.29 27.5706 30.3 27.3506 30.3ZM33.7807 30.21C33.1807 30.21 32.7207 30.03 32.4007 29.67C32.0807 29.31 31.9207 28.81 31.9207 28.17V17.16C31.9207 16.5 32.0807 16 32.4007 15.66C32.7207 15.3 33.1807 15.12 33.7807 15.12C34.3807 15.12 34.8407 15.3 35.1607 15.66C35.5007 16 35.6707 16.5 35.6707 17.16V28.17C35.6707 28.81 35.5107 29.31 35.1907 29.67C34.8707 30.03 34.4007 30.21 33.7807 30.21ZM33.7807 12.33C33.0807 12.33 32.5307 12.16 32.1307 11.82C31.7507 11.46 31.5607 10.97 31.5607 10.35C31.5607 9.71 31.7507 9.22 32.1307 8.88C32.5307 8.54 33.0807 8.37 33.7807 8.37C34.5007 8.37 35.0507 8.54 35.4307 8.88C35.8107 9.22 36.0007 9.71 36.0007 10.35C36.0007 10.97 35.8107 11.46 35.4307 11.82C35.0507 12.16 34.5007 12.33 33.7807 12.33ZM46.3472 30.3C44.8072 30.3 43.4672 29.99 42.3272 29.37C41.1872 28.73 40.3072 27.83 39.6872 26.67C39.0672 25.51 38.7572 24.15 38.7572 22.59C38.7572 21.41 38.9272 20.36 39.2672 19.44C39.6272 18.5 40.1372 17.71 40.7972 17.07C41.4572 16.41 42.2572 15.91 43.1972 15.57C44.1372 15.21 45.1872 15.03 46.3472 15.03C47.0072 15.03 47.7172 15.12 48.4772 15.3C49.2572 15.48 49.9872 15.78 50.6672 16.2C50.9872 16.4 51.1972 16.64 51.2972 16.92C51.3972 17.2 51.4172 17.49 51.3572 17.79C51.2972 18.07 51.1672 18.32 50.9672 18.54C50.7872 18.74 50.5572 18.87 50.2772 18.93C49.9972 18.97 49.6872 18.9 49.3472 18.72C48.9072 18.46 48.4572 18.27 47.9972 18.15C47.5372 18.01 47.0972 17.94 46.6772 17.94C46.0172 17.94 45.4372 18.05 44.9372 18.27C44.4372 18.47 44.0072 18.77 43.6472 19.17C43.3072 19.55 43.0472 20.03 42.8672 20.61C42.6872 21.19 42.5972 21.86 42.5972 22.62C42.5972 24.1 42.9472 25.27 43.6472 26.13C44.3672 26.97 45.3772 27.39 46.6772 27.39C47.0972 27.39 47.5272 27.33 47.9672 27.21C48.4272 27.09 48.8872 26.9 49.3472 26.64C49.6872 26.46 49.9872 26.4 50.2472 26.46C50.5272 26.52 50.7572 26.66 50.9372 26.88C51.1172 27.08 51.2272 27.33 51.2672 27.63C51.3072 27.91 51.2672 28.19 51.1472 28.47C51.0472 28.75 50.8472 28.98 50.5472 29.16C49.8872 29.56 49.1872 29.85 48.4472 30.03C47.7072 30.21 47.0072 30.3 46.3472 30.3ZM55.5776 30.24C54.9776 30.24 54.5176 30.08 54.1976 29.76C53.8776 29.42 53.7176 28.94 53.7176 28.32V10.5C53.7176 9.88 53.8776 9.41 54.1976 9.09C54.5176 8.77 54.9776 8.61 55.5776 8.61C56.1776 8.61 56.6376 8.77 56.9576 9.09C57.2976 9.41 57.4676 9.88 57.4676 10.5V21.57H57.5276L62.4776 16.35C62.8776 15.95 63.2276 15.64 63.5276 15.42C63.8276 15.2 64.2376 15.09 64.7576 15.09C65.2776 15.09 65.6676 15.23 65.9276 15.51C66.2076 15.77 66.3476 16.09 66.3476 16.47C66.3476 16.85 66.1676 17.23 65.8076 17.61L60.5876 23.13V21.57L66.3176 27.75C66.6776 28.13 66.8376 28.52 66.7976 28.92C66.7776 29.3 66.6176 29.62 66.3176 29.88C66.0176 30.12 65.6376 30.24 65.1776 30.24C64.6176 30.24 64.1676 30.13 63.8276 29.91C63.5076 29.69 63.1476 29.36 62.7476 28.92L57.5276 23.46H57.4676V28.32C57.4676 29.6 56.8376 30.24 55.5776 30.24ZM84.6661 30.3C83.3661 30.3 82.2761 30.08 81.3961 29.64C80.5361 29.2 79.8961 28.56 79.4761 27.72C79.0561 26.86 78.8461 25.8 78.8461 24.54V18.15H77.2861C76.8061 18.15 76.4361 18.03 76.1761 17.79C75.9161 17.53 75.7861 17.18 75.7861 16.74C75.7861 16.28 75.9161 15.93 76.1761 15.69C76.4361 15.45 76.8061 15.33 77.2861 15.33H78.8461V12.6C78.8461 11.98 79.0061 11.51 79.3261 11.19C79.6661 10.87 80.1361 10.71 80.7361 10.71C81.3361 10.71 81.7961 10.87 82.1161 11.19C82.4361 11.51 82.5961 11.98 82.5961 12.6V15.33H85.7761C86.2561 15.33 86.6261 15.45 86.8861 15.69C87.1461 15.93 87.2761 16.28 87.2761 16.74C87.2761 17.18 87.1461 17.53 86.8861 17.79C86.6261 18.03 86.2561 18.15 85.7761 18.15H82.5961V24.33C82.5961 25.29 82.8061 26.01 83.2261 26.49C83.6461 26.97 84.3261 27.21 85.2661 27.21C85.6061 27.21 85.9061 27.18 86.1661 27.12C86.4261 27.06 86.6561 27.02 86.8561 27C87.0961 26.98 87.2961 27.06 87.4561 27.24C87.6161 27.4 87.6961 27.74 87.6961 28.26C87.6961 28.66 87.6261 29.02 87.4861 29.34C87.3661 29.64 87.1361 29.85 86.7961 29.97C86.5361 30.05 86.1961 30.12 85.7761 30.18C85.3561 30.26 84.9861 30.3 84.6661 30.3ZM91.7006 30.24C91.1006 30.24 90.6406 30.08 90.3206 29.76C90.0006 29.42 89.8406 28.94 89.8406 28.32V10.5C89.8406 9.88 90.0006 9.41 90.3206 9.09C90.6406 8.77 91.1006 8.61 91.7006 8.61C92.3006 8.61 92.7606 8.77 93.0806 9.09C93.4206 9.41 93.5906 9.88 93.5906 10.5V18.27H93.1706C93.6106 17.21 94.2906 16.41 95.2106 15.87C96.1506 15.31 97.2106 15.03 98.3906 15.03C99.5706 15.03 100.541 15.25 101.301 15.69C102.061 16.13 102.631 16.8 103.011 17.7C103.391 18.58 103.581 19.7 103.581 21.06V28.32C103.581 28.94 103.421 29.42 103.101 29.76C102.781 30.08 102.321 30.24 101.721 30.24C101.121 30.24 100.651 30.08 100.311 29.76C99.9906 29.42 99.8306 28.94 99.8306 28.32V21.24C99.8306 20.1 99.6106 19.27 99.1706 18.75C98.7506 18.23 98.0906 17.97 97.1906 17.97C96.0906 17.97 95.2106 18.32 94.5506 19.02C93.9106 19.7 93.5906 20.61 93.5906 21.75V28.32C93.5906 29.6 92.9606 30.24 91.7006 30.24ZM112.699 30.3C111.479 30.3 110.469 30.08 109.669 29.64C108.869 29.18 108.269 28.5 107.869 27.6C107.489 26.7 107.299 25.58 107.299 24.24V16.98C107.299 16.34 107.459 15.87 107.779 15.57C108.099 15.25 108.559 15.09 109.159 15.09C109.759 15.09 110.219 15.25 110.539 15.57C110.879 15.87 111.049 16.34 111.049 16.98V24.3C111.049 25.34 111.259 26.11 111.679 26.61C112.099 27.11 112.769 27.36 113.689 27.36C114.689 27.36 115.509 27.02 116.149 26.34C116.789 25.64 117.109 24.72 117.109 23.58V16.98C117.109 16.34 117.269 15.87 117.589 15.57C117.909 15.25 118.369 15.09 118.969 15.09C119.569 15.09 120.029 15.25 120.349 15.57C120.689 15.87 120.859 16.34 120.859 16.98V28.32C120.859 29.6 120.249 30.24 119.029 30.24C118.449 30.24 117.999 30.08 117.679 29.76C117.359 29.42 117.199 28.94 117.199 28.32V26.04L117.619 26.94C117.199 28.02 116.559 28.85 115.699 29.43C114.859 30.01 113.859 30.3 112.699 30.3ZM126.683 30.24C126.083 30.24 125.623 30.08 125.303 29.76C124.983 29.42 124.823 28.94 124.823 28.32V16.98C124.823 16.36 124.983 15.89 125.303 15.57C125.623 15.25 126.073 15.09 126.653 15.09C127.233 15.09 127.683 15.25 128.003 15.57C128.323 15.89 128.483 16.36 128.483 16.98V19.17L128.153 18.27C128.553 17.27 129.173 16.48 130.013 15.9C130.853 15.32 131.853 15.03 133.013 15.03C134.193 15.03 135.163 15.31 135.923 15.87C136.683 16.43 137.213 17.29 137.513 18.45H137.093C137.493 17.39 138.153 16.56 139.073 15.96C139.993 15.34 141.053 15.03 142.253 15.03C143.373 15.03 144.293 15.25 145.013 15.69C145.753 16.13 146.303 16.8 146.663 17.7C147.023 18.58 147.203 19.7 147.203 21.06V28.32C147.203 28.94 147.033 29.42 146.693 29.76C146.373 30.08 145.913 30.24 145.313 30.24C144.713 30.24 144.253 30.08 143.933 29.76C143.613 29.42 143.453 28.94 143.453 28.32V21.21C143.453 20.09 143.263 19.27 142.883 18.75C142.523 18.23 141.903 17.97 141.023 17.97C140.043 17.97 139.273 18.32 138.713 19.02C138.153 19.7 137.873 20.65 137.873 21.87V28.32C137.873 28.94 137.713 29.42 137.393 29.76C137.073 30.08 136.613 30.24 136.013 30.24C135.413 30.24 134.943 30.08 134.603 29.76C134.283 29.42 134.123 28.94 134.123 28.32V21.21C134.123 20.09 133.933 19.27 133.553 18.75C133.193 18.23 132.583 17.97 131.723 17.97C130.743 17.97 129.973 18.32 129.413 19.02C128.853 19.7 128.573 20.65 128.573 21.87V28.32C128.573 29.6 127.943 30.24 126.683 30.24ZM159.531 30.3C158.291 30.3 157.201 29.99 156.261 29.37C155.341 28.75 154.731 27.92 154.431 26.88L154.761 26.13V28.32C154.761 28.94 154.601 29.42 154.281 29.76C153.961 30.08 153.511 30.24 152.931 30.24C152.331 30.24 151.871 30.08 151.551 29.76C151.231 29.42 151.071 28.94 151.071 28.32V10.5C151.071 9.88 151.231 9.41 151.551 9.09C151.871 8.77 152.331 8.61 152.931 8.61C153.531 8.61 153.991 8.77 154.311 9.09C154.651 9.41 154.821 9.88 154.821 10.5V18.3H154.461C154.781 17.32 155.401 16.53 156.321 15.93C157.241 15.33 158.311 15.03 159.531 15.03C160.831 15.03 161.961 15.34 162.921 15.96C163.881 16.58 164.631 17.46 165.171 18.6C165.711 19.72 165.981 21.07 165.981 22.65C165.981 24.21 165.711 25.57 165.171 26.73C164.631 27.87 163.871 28.75 162.891 29.37C161.931 29.99 160.811 30.3 159.531 30.3ZM158.481 27.45C159.221 27.45 159.871 27.27 160.431 26.91C160.991 26.55 161.421 26.02 161.721 25.32C162.041 24.6 162.201 23.71 162.201 22.65C162.201 21.05 161.861 19.86 161.181 19.08C160.501 18.28 159.601 17.88 158.481 17.88C157.741 17.88 157.091 18.06 156.531 18.42C155.971 18.76 155.531 19.29 155.211 20.01C154.911 20.71 154.761 21.59 154.761 22.65C154.761 24.23 155.101 25.43 155.781 26.25C156.461 27.05 157.361 27.45 158.481 27.45ZM170.919 30.24C170.319 30.24 169.859 30.08 169.539 29.76C169.219 29.42 169.059 28.94 169.059 28.32V16.98C169.059 16.36 169.219 15.89 169.539 15.57C169.859 15.25 170.309 15.09 170.889 15.09C171.469 15.09 171.919 15.25 172.239 15.57C172.559 15.89 172.719 16.36 172.719 16.98V19.02L172.389 18.27C172.829 17.21 173.509 16.41 174.429 15.87C175.369 15.31 176.429 15.03 177.609 15.03C178.789 15.03 179.759 15.25 180.519 15.69C181.279 16.13 181.849 16.8 182.229 17.7C182.609 18.58 182.799 19.7 182.799 21.06V28.32C182.799 28.94 182.639 29.42 182.319 29.76C181.999 30.08 181.539 30.24 180.939 30.24C180.339 30.24 179.869 30.08 179.529 29.76C179.209 29.42 179.049 28.94 179.049 28.32V21.24C179.049 20.1 178.829 19.27 178.389 18.75C177.969 18.23 177.309 17.97 176.409 17.97C175.309 17.97 174.429 18.32 173.769 19.02C173.129 19.7 172.809 20.61 172.809 21.75V28.32C172.809 29.6 172.179 30.24 170.919 30.24ZM191.438 30.3C190.378 30.3 189.428 30.1 188.588 29.7C187.768 29.28 187.118 28.72 186.638 28.02C186.178 27.32 185.948 26.53 185.948 25.65C185.948 24.57 186.228 23.72 186.788 23.1C187.348 22.46 188.258 22 189.518 21.72C190.778 21.44 192.468 21.3 194.588 21.3H196.088V23.46H194.618C193.378 23.46 192.388 23.52 191.648 23.64C190.908 23.76 190.378 23.97 190.058 24.27C189.758 24.55 189.608 24.95 189.608 25.47C189.608 26.13 189.838 26.67 190.298 27.09C190.758 27.51 191.398 27.72 192.218 27.72C192.878 27.72 193.458 27.57 193.958 27.27C194.478 26.95 194.888 26.52 195.188 25.98C195.488 25.44 195.638 24.82 195.638 24.12V20.67C195.638 19.67 195.418 18.95 194.978 18.51C194.538 18.07 193.798 17.85 192.758 17.85C192.178 17.85 191.548 17.92 190.868 18.06C190.208 18.2 189.508 18.44 188.768 18.78C188.388 18.96 188.048 19.01 187.748 18.93C187.468 18.85 187.248 18.69 187.088 18.45C186.928 18.19 186.848 17.91 186.848 17.61C186.848 17.31 186.928 17.02 187.088 16.74C187.248 16.44 187.518 16.22 187.898 16.08C188.818 15.7 189.698 15.43 190.538 15.27C191.398 15.11 192.178 15.03 192.878 15.03C194.318 15.03 195.498 15.25 196.418 15.69C197.358 16.13 198.058 16.8 198.518 17.7C198.978 18.58 199.208 19.72 199.208 21.12V28.32C199.208 28.94 199.058 29.42 198.758 29.76C198.458 30.08 198.028 30.24 197.468 30.24C196.908 30.24 196.468 30.08 196.148 29.76C195.848 29.42 195.698 28.94 195.698 28.32V26.88H195.938C195.798 27.58 195.518 28.19 195.098 28.71C194.698 29.21 194.188 29.6 193.568 29.88C192.948 30.16 192.238 30.3 191.438 30.3ZM204.874 30.21C204.274 30.21 203.814 30.03 203.494 29.67C203.174 29.31 203.014 28.81 203.014 28.17V17.16C203.014 16.5 203.174 16 203.494 15.66C203.814 15.3 204.274 15.12 204.874 15.12C205.474 15.12 205.934 15.3 206.254 15.66C206.594 16 206.764 16.5 206.764 17.16V28.17C206.764 28.81 206.604 29.31 206.284 29.67C205.964 30.03 205.494 30.21 204.874 30.21ZM204.874 12.33C204.174 12.33 203.624 12.16 203.224 11.82C202.844 11.46 202.654 10.97 202.654 10.35C202.654 9.71 202.844 9.22 203.224 8.88C203.624 8.54 204.174 8.37 204.874 8.37C205.594 8.37 206.144 8.54 206.524 8.88C206.904 9.22 207.094 9.71 207.094 10.35C207.094 10.97 206.904 11.46 206.524 11.82C206.144 12.16 205.594 12.33 204.874 12.33ZM215.671 30.3C214.011 30.3 212.761 29.83 211.921 28.89C211.081 27.93 210.661 26.53 210.661 24.69V10.5C210.661 9.88 210.821 9.41 211.141 9.09C211.461 8.77 211.921 8.61 212.521 8.61C213.121 8.61 213.581 8.77 213.901 9.09C214.241 9.41 214.411 9.88 214.411 10.5V24.51C214.411 25.43 214.601 26.11 214.981 26.55C215.381 26.99 215.941 27.21 216.661 27.21C216.821 27.21 216.971 27.21 217.111 27.21C217.251 27.19 217.391 27.17 217.531 27.15C217.811 27.11 218.001 27.19 218.101 27.39C218.201 27.57 218.251 27.95 218.251 28.53C218.251 29.03 218.151 29.42 217.951 29.7C217.751 29.98 217.421 30.15 216.961 30.21C216.761 30.23 216.551 30.25 216.331 30.27C216.111 30.29 215.891 30.3 215.671 30.3ZM235.106 30.3C233.806 30.3 232.716 30.08 231.836 29.64C230.976 29.2 230.336 28.56 229.916 27.72C229.496 26.86 229.286 25.8 229.286 24.54V18.15H227.726C227.246 18.15 226.876 18.03 226.616 17.79C226.356 17.53 226.226 17.18 226.226 16.74C226.226 16.28 226.356 15.93 226.616 15.69C226.876 15.45 227.246 15.33 227.726 15.33H229.286V12.6C229.286 11.98 229.446 11.51 229.766 11.19C230.106 10.87 230.576 10.71 231.176 10.71C231.776 10.71 232.236 10.87 232.556 11.19C232.876 11.51 233.036 11.98 233.036 12.6V15.33H236.216C236.696 15.33 237.066 15.45 237.326 15.69C237.586 15.93 237.716 16.28 237.716 16.74C237.716 17.18 237.586 17.53 237.326 17.79C237.066 18.03 236.696 18.15 236.216 18.15H233.036V24.33C233.036 25.29 233.246 26.01 233.666 26.49C234.086 26.97 234.766 27.21 235.706 27.21C236.046 27.21 236.346 27.18 236.606 27.12C236.866 27.06 237.096 27.02 237.296 27C237.536 26.98 237.736 27.06 237.896 27.24C238.056 27.4 238.136 27.74 238.136 28.26C238.136 28.66 238.066 29.02 237.926 29.34C237.806 29.64 237.576 29.85 237.236 29.97C236.976 30.05 236.636 30.12 236.216 30.18C235.796 30.26 235.426 30.3 235.106 30.3ZM246.443 30.3C244.923 30.3 243.603 29.99 242.483 29.37C241.363 28.75 240.493 27.87 239.873 26.73C239.253 25.57 238.943 24.21 238.943 22.65C238.943 21.47 239.113 20.42 239.453 19.5C239.813 18.56 240.323 17.76 240.983 17.1C241.643 16.42 242.433 15.91 243.353 15.57C244.273 15.21 245.303 15.03 246.443 15.03C247.963 15.03 249.283 15.34 250.403 15.96C251.523 16.58 252.393 17.46 253.013 18.6C253.633 19.74 253.943 21.09 253.943 22.65C253.943 23.83 253.763 24.89 253.403 25.83C253.063 26.77 252.563 27.58 251.903 28.26C251.243 28.92 250.453 29.43 249.533 29.79C248.613 30.13 247.583 30.3 246.443 30.3ZM246.443 27.45C247.183 27.45 247.833 27.27 248.393 26.91C248.953 26.55 249.383 26.02 249.683 25.32C250.003 24.6 250.163 23.71 250.163 22.65C250.163 21.05 249.823 19.86 249.143 19.08C248.463 18.28 247.563 17.88 246.443 17.88C245.703 17.88 245.053 18.06 244.493 18.42C243.933 18.76 243.493 19.29 243.173 20.01C242.873 20.71 242.723 21.59 242.723 22.65C242.723 24.23 243.063 25.43 243.743 26.25C244.423 27.05 245.323 27.45 246.443 27.45ZM267.042 35.64C266.442 35.64 265.982 35.48 265.662 35.16C265.342 34.84 265.182 34.37 265.182 33.75V16.98C265.182 16.36 265.342 15.89 265.662 15.57C265.982 15.25 266.432 15.09 267.012 15.09C267.612 15.09 268.072 15.25 268.392 15.57C268.712 15.89 268.872 16.36 268.872 16.98V19.32L268.542 18.42C268.842 17.4 269.452 16.58 270.372 15.96C271.312 15.34 272.402 15.03 273.642 15.03C274.922 15.03 276.042 15.34 277.002 15.96C277.982 16.58 278.742 17.46 279.282 18.6C279.822 19.72 280.092 21.07 280.092 22.65C280.092 24.21 279.822 25.57 279.282 26.73C278.742 27.87 277.992 28.75 277.032 29.37C276.072 29.99 274.942 30.3 273.642 30.3C272.422 30.3 271.352 30 270.432 29.4C269.512 28.78 268.892 27.98 268.572 27H268.932V33.75C268.932 34.37 268.762 34.84 268.422 35.16C268.102 35.48 267.642 35.64 267.042 35.64ZM272.592 27.45C273.332 27.45 273.982 27.27 274.542 26.91C275.102 26.55 275.532 26.02 275.832 25.32C276.152 24.6 276.312 23.71 276.312 22.65C276.312 21.05 275.972 19.86 275.292 19.08C274.612 18.28 273.712 17.88 272.592 17.88C271.852 17.88 271.202 18.06 270.642 18.42C270.082 18.76 269.642 19.29 269.322 20.01C269.022 20.71 268.872 21.59 268.872 22.65C268.872 24.23 269.212 25.43 269.892 26.25C270.572 27.05 271.472 27.45 272.592 27.45ZM288.181 30.3C286.521 30.3 285.271 29.83 284.431 28.89C283.591 27.93 283.171 26.53 283.171 24.69V10.5C283.171 9.88 283.331 9.41 283.651 9.09C283.971 8.77 284.431 8.61 285.031 8.61C285.631 8.61 286.091 8.77 286.411 9.09C286.751 9.41 286.921 9.88 286.921 10.5V24.51C286.921 25.43 287.111 26.11 287.491 26.55C287.891 26.99 288.451 27.21 289.171 27.21C289.331 27.21 289.481 27.21 289.621 27.21C289.761 27.19 289.901 27.17 290.041 27.15C290.321 27.11 290.511 27.19 290.611 27.39C290.711 27.57 290.761 27.95 290.761 28.53C290.761 29.03 290.661 29.42 290.461 29.7C290.261 29.98 289.931 30.15 289.471 30.21C289.271 30.23 289.061 30.25 288.841 30.27C288.621 30.29 288.401 30.3 288.181 30.3ZM297.581 30.3C296.521 30.3 295.571 30.1 294.731 29.7C293.911 29.28 293.261 28.72 292.781 28.02C292.321 27.32 292.091 26.53 292.091 25.65C292.091 24.57 292.371 23.72 292.931 23.1C293.491 22.46 294.401 22 295.661 21.72C296.921 21.44 298.611 21.3 300.731 21.3H302.231V23.46H300.761C299.521 23.46 298.531 23.52 297.791 23.64C297.051 23.76 296.521 23.97 296.201 24.27C295.901 24.55 295.751 24.95 295.751 25.47C295.751 26.13 295.981 26.67 296.441 27.09C296.901 27.51 297.541 27.72 298.361 27.72C299.021 27.72 299.601 27.57 300.101 27.27C300.621 26.95 301.031 26.52 301.331 25.98C301.631 25.44 301.781 24.82 301.781 24.12V20.67C301.781 19.67 301.561 18.95 301.121 18.51C300.681 18.07 299.941 17.85 298.901 17.85C298.321 17.85 297.691 17.92 297.011 18.06C296.351 18.2 295.651 18.44 294.911 18.78C294.531 18.96 294.191 19.01 293.891 18.93C293.611 18.85 293.391 18.69 293.231 18.45C293.071 18.19 292.991 17.91 292.991 17.61C292.991 17.31 293.071 17.02 293.231 16.74C293.391 16.44 293.661 16.22 294.041 16.08C294.961 15.7 295.841 15.43 296.681 15.27C297.541 15.11 298.321 15.03 299.021 15.03C300.461 15.03 301.641 15.25 302.561 15.69C303.501 16.13 304.201 16.8 304.661 17.7C305.121 18.58 305.351 19.72 305.351 21.12V28.32C305.351 28.94 305.201 29.42 304.901 29.76C304.601 30.08 304.171 30.24 303.611 30.24C303.051 30.24 302.611 30.08 302.291 29.76C301.991 29.42 301.841 28.94 301.841 28.32V26.88H302.081C301.941 27.58 301.661 28.19 301.241 28.71C300.841 29.21 300.331 29.6 299.711 29.88C299.091 30.16 298.381 30.3 297.581 30.3ZM312.731 35.64C312.291 35.64 311.931 35.52 311.651 35.28C311.371 35.06 311.201 34.76 311.141 34.38C311.101 34 311.171 33.6 311.351 33.18L313.391 28.65V30.21L307.931 17.58C307.751 17.14 307.691 16.73 307.751 16.35C307.811 15.97 307.991 15.67 308.291 15.45C308.611 15.21 309.041 15.09 309.581 15.09C310.041 15.09 310.411 15.2 310.691 15.42C310.971 15.62 311.221 16.01 311.441 16.59L315.491 26.7H314.591L318.731 16.56C318.951 16 319.211 15.62 319.511 15.42C319.811 15.2 320.211 15.09 320.711 15.09C321.151 15.09 321.501 15.21 321.761 15.45C322.021 15.67 322.181 15.97 322.241 16.35C322.301 16.71 322.231 17.11 322.031 17.55L314.741 34.2C314.481 34.76 314.201 35.14 313.901 35.34C313.601 35.54 313.211 35.64 312.731 35.64ZM338.886 30.24C338.386 30.24 337.946 30.11 337.566 29.85C337.206 29.59 336.906 29.19 336.666 28.65L331.896 17.58C331.716 17.14 331.646 16.73 331.686 16.35C331.746 15.97 331.926 15.67 332.226 15.45C332.546 15.21 332.976 15.09 333.516 15.09C333.976 15.09 334.346 15.2 334.626 15.42C334.906 15.62 335.156 16.01 335.376 16.59L339.426 26.7H338.526L342.696 16.56C342.916 16 343.166 15.62 343.446 15.42C343.746 15.2 344.146 15.09 344.646 15.09C345.086 15.09 345.436 15.21 345.696 15.45C345.956 15.67 346.116 15.97 346.176 16.35C346.236 16.71 346.166 17.11 345.966 17.55L341.106 28.65C340.886 29.19 340.586 29.59 340.206 29.85C339.846 30.11 339.406 30.24 338.886 30.24ZM350.626 30.21C350.026 30.21 349.566 30.03 349.246 29.67C348.926 29.31 348.766 28.81 348.766 28.17V17.16C348.766 16.5 348.926 16 349.246 15.66C349.566 15.3 350.026 15.12 350.626 15.12C351.226 15.12 351.686 15.3 352.006 15.66C352.346 16 352.516 16.5 352.516 17.16V28.17C352.516 28.81 352.356 29.31 352.036 29.67C351.716 30.03 351.246 30.21 350.626 30.21ZM350.626 12.33C349.926 12.33 349.376 12.16 348.976 11.82C348.596 11.46 348.406 10.97 348.406 10.35C348.406 9.71 348.596 9.22 348.976 8.88C349.376 8.54 349.926 8.37 350.626 8.37C351.346 8.37 351.896 8.54 352.276 8.88C352.656 9.22 352.846 9.71 352.846 10.35C352.846 10.97 352.656 11.46 352.276 11.82C351.896 12.16 351.346 12.33 350.626 12.33ZM362.053 30.3C360.773 30.3 359.643 29.99 358.663 29.37C357.703 28.75 356.953 27.87 356.413 26.73C355.873 25.57 355.603 24.21 355.603 22.65C355.603 21.07 355.873 19.72 356.413 18.6C356.953 17.46 357.703 16.58 358.663 15.96C359.643 15.34 360.773 15.03 362.053 15.03C363.273 15.03 364.333 15.33 365.233 15.93C366.153 16.53 366.773 17.32 367.093 18.3H366.763V10.5C366.763 9.88 366.923 9.41 367.243 9.09C367.563 8.77 368.023 8.61 368.623 8.61C369.223 8.61 369.683 8.77 370.003 9.09C370.343 9.41 370.513 9.88 370.513 10.5V28.32C370.513 28.94 370.353 29.42 370.033 29.76C369.713 30.08 369.253 30.24 368.653 30.24C368.053 30.24 367.593 30.08 367.273 29.76C366.953 29.42 366.793 28.94 366.793 28.32V25.98L367.123 26.88C366.823 27.92 366.213 28.75 365.293 29.37C364.373 29.99 363.293 30.3 362.053 30.3ZM363.103 27.45C363.843 27.45 364.493 27.27 365.053 26.91C365.613 26.55 366.043 26.02 366.343 25.32C366.663 24.6 366.823 23.71 366.823 22.65C366.823 21.05 366.483 19.86 365.803 19.08C365.123 18.28 364.223 17.88 363.103 17.88C362.363 17.88 361.713 18.06 361.153 18.42C360.593 18.76 360.153 19.29 359.833 20.01C359.533 20.71 359.383 21.59 359.383 22.65C359.383 24.23 359.723 25.43 360.403 26.25C361.083 27.05 361.983 27.45 363.103 27.45ZM381.631 30.3C379.971 30.3 378.541 29.99 377.341 29.37C376.141 28.75 375.211 27.87 374.551 26.73C373.911 25.59 373.591 24.24 373.591 22.68C373.591 21.16 373.901 19.83 374.521 18.69C375.161 17.55 376.031 16.66 377.131 16.02C378.251 15.36 379.521 15.03 380.941 15.03C381.981 15.03 382.911 15.2 383.731 15.54C384.571 15.88 385.281 16.37 385.861 17.01C386.461 17.65 386.911 18.43 387.211 19.35C387.531 20.25 387.691 21.27 387.691 22.41C387.691 22.77 387.561 23.05 387.301 23.25C387.061 23.43 386.711 23.52 386.251 23.52H376.621V21.36H385.051L384.571 21.81C384.571 20.89 384.431 20.12 384.151 19.5C383.891 18.88 383.501 18.41 382.981 18.09C382.481 17.75 381.851 17.58 381.091 17.58C380.251 17.58 379.531 17.78 378.931 18.18C378.351 18.56 377.901 19.11 377.581 19.83C377.281 20.53 377.131 21.37 377.131 22.35V22.56C377.131 24.2 377.511 25.43 378.271 26.25C379.051 27.05 380.191 27.45 381.691 27.45C382.211 27.45 382.791 27.39 383.431 27.27C384.091 27.13 384.711 26.9 385.291 26.58C385.711 26.34 386.081 26.24 386.401 26.28C386.721 26.3 386.971 26.41 387.151 26.61C387.351 26.81 387.471 27.06 387.511 27.36C387.551 27.64 387.491 27.93 387.331 28.23C387.191 28.53 386.941 28.79 386.581 29.01C385.881 29.45 385.071 29.78 384.151 30C383.251 30.2 382.411 30.3 381.631 30.3ZM397.351 30.3C395.831 30.3 394.511 29.99 393.391 29.37C392.271 28.75 391.401 27.87 390.781 26.73C390.161 25.57 389.851 24.21 389.851 22.65C389.851 21.47 390.021 20.42 390.361 19.5C390.721 18.56 391.231 17.76 391.891 17.1C392.551 16.42 393.341 15.91 394.261 15.57C395.181 15.21 396.211 15.03 397.351 15.03C398.871 15.03 400.191 15.34 401.311 15.96C402.431 16.58 403.301 17.46 403.921 18.6C404.541 19.74 404.851 21.09 404.851 22.65C404.851 23.83 404.671 24.89 404.311 25.83C403.971 26.77 403.471 27.58 402.811 28.26C402.151 28.92 401.361 29.43 400.441 29.79C399.521 30.13 398.491 30.3 397.351 30.3ZM397.351 27.45C398.091 27.45 398.741 27.27 399.301 26.91C399.861 26.55 400.291 26.02 400.591 25.32C400.911 24.6 401.071 23.71 401.071 22.65C401.071 21.05 400.731 19.86 400.051 19.08C399.371 18.28 398.471 17.88 397.351 17.88C396.611 17.88 395.961 18.06 395.401 18.42C394.841 18.76 394.401 19.29 394.081 20.01C393.781 20.71 393.631 21.59 393.631 22.65C393.631 24.23 393.971 25.43 394.651 26.25C395.331 27.05 396.231 27.45 397.351 27.45Z" fill="#4DA4E0"/>
<defs>
<clipPath id="clip0_106_412">
<rect width="129" height="121" fill="white" transform="matrix(0 1 1 0 91 51)"/>
</clipPath>
</defs>
</svg>
