<svg width="256" height="70" viewBox="0 0 256 70" fill="none" xmlns="http://www.w3.org/2000/svg">
<g clip-path="url(#clip0_50_981)">
<path d="M253.289 51.8054C250.641 51.3732 246.801 50.5633 243.649 50.1153C192.785 43.286 141.474 39.9887 90.3426 40.2634C65.3532 40.4474 32.8228 42.2473 5.51808 43.948C4.18565 44.1797 2.77652 44.1213 1.44359 43.7793C1.17564 43.6641 0.93733 43.5099 0.742676 43.3257C0.548022 43.1416 0.400946 42.9312 0.310086 42.707C0.219226 42.4828 0.186416 42.2492 0.213583 42.02C0.24075 41.7908 0.327345 41.5706 0.468283 41.3724C1.08877 40.4067 2.69175 40.4191 3.91811 40.154C6.18957 39.7773 8.48204 39.4659 10.7677 39.1312C37.6415 35.0117 64.7187 31.4769 92.2908 30.1805C117.58 28.5517 143.083 28.6869 168.537 28.4879C161.495 27.5941 154.439 26.7975 147.37 26.1626C128.866 24.5898 110.312 24.0089 91.8434 24.4242C88.2331 24.7626 84.6256 25.1119 81.0209 25.4722C74.0991 26.1461 67.161 26.7465 60.228 27.3721C55.9417 27.5254 51.5073 28.7071 47.2268 27.8407C44.4864 26.788 45.547 24.5401 47.858 23.9191C54.1627 22.3502 60.9844 22.0451 67.6109 21.5198C75.9652 21.0128 84.3497 20.6834 92.7642 20.5316C99.8647 19.8662 106.973 19.239 114.101 18.7247C100.391 18.4437 86.7768 18.4137 73.3183 18.7643C103.788 13.2744 135.765 15.1939 167.161 17.0074C168.872 17.0261 170.585 17.1921 172.269 17.5025C172.618 17.6059 172.939 17.7653 173.208 17.9699C173.478 18.1744 173.69 18.4193 173.83 18.6876C173.97 18.9558 174.035 19.2412 174.02 19.5241C174.005 19.807 173.91 20.0807 173.743 20.3264C172.465 22.0163 169.285 21.0514 167.123 21.2331C159.075 21.0986 154.418 21.0832 146.859 21.1613C143.122 21.2052 139.394 21.3094 135.671 21.4384C152.503 22.4981 171.414 24.415 185.425 27.2545C185.766 27.3438 186.084 27.484 186.36 27.6669C186.637 27.8498 186.866 28.0717 187.034 28.3194C187.202 28.5672 187.305 28.8358 187.339 29.1093C187.372 29.3828 187.334 29.6558 187.228 29.912C186.277 31.5055 183.516 31.3985 181.511 31.5355C179.337 31.5909 176.092 31.7294 172.491 31.789C146.543 32.0038 123.045 31.5988 96.9061 33.1571C77.5929 34.0543 58.4123 35.7539 39.4468 38.2488C51.3534 37.6223 63.2771 37.1165 75.218 36.7315C108.641 35.9983 142.201 36.8434 175.713 39.2621C199.84 41.0762 224.354 42.8466 247.407 49.9018C249.383 50.5045 251.33 51.1683 253.289 51.8054Z" fill="#4DA4E0"/>
</g>
<defs>
<clipPath id="clip0_50_981">
<rect width="252.762" height="43.8803" fill="white" transform="translate(4.50464 0.140747) rotate(5.86596)"/>
</clipPath>
</defs>
</svg>
