<svg width="309" height="18" viewBox="0 0 309 18" fill="none" xmlns="http://www.w3.org/2000/svg">
<g clip-path="url(#clip0_50_983)">
<path d="M309 13.4285C264.809 13.3691 218.89 11.8661 174.141 12.7833C150.475 13.2716 126.875 14.4012 103.332 15.7996C86.8569 16.5372 70.3192 18.1635 53.7938 17.9867C52.9283 17.9022 52.134 17.6672 51.526 17.3158C50.9181 16.9644 50.5281 16.5149 50.4127 16.0324C50.2973 15.5499 50.4625 15.0597 50.8843 14.6327C51.3061 14.2058 51.9625 13.8643 52.7584 13.658C61.6739 12.1897 71.1388 11.7932 80.255 10.7391C98.9766 8.86786 117.784 7.23286 136.465 5.23834C90.679 7.41413 42.262 11.4321 0 14.6766C31.5952 8.85302 73.1771 5.05478 109.061 2.84003C120.391 2.09083 131.742 1.43624 143.097 0.813871C150.826 0.592226 158.726 -0.461089 166.42 0.234046C169.209 0.676056 171.665 2.70044 169.531 4.12346C166.48 5.9026 161.798 6.40394 157.672 7.04515C148.091 8.22391 138.456 9.24696 128.8 10.2072C135.854 9.84513 142.915 9.5214 149.989 9.28766C203.026 7.31833 256.733 7.57499 309 13.4285Z" fill="#4DA4E0"/>
</g>
<defs>
<clipPath id="clip0_50_983">
<rect width="309" height="18" fill="white"/>
</clipPath>
</defs>
</svg>
