<svg width="207" height="83" viewBox="0 0 207 83" fill="none" xmlns="http://www.w3.org/2000/svg">
<g clip-path="url(#clip0_50_979)">
<path d="M119.729 21.846C93.6796 22.7794 65.4116 24.2808 38.626 22.7542C65.4167 18.4598 92.9103 16.9284 119.729 21.846ZM191.94 48.0369C161.996 37.2097 129.677 36.8531 98.2496 34.6732C65.4262 33.5929 31.0192 30.4355 -1.18863e-05 43.4281C30.7492 36.8933 62.5349 37.9685 93.7793 39.1236C124.824 40.5882 157.347 43.1305 189.421 49.6655C193.823 50.52 201.662 52.4391 204.219 52.5537C200.119 51.0654 196.026 49.5598 191.94 48.0369Z" fill="#4DA4E0"/>
</g>
<defs>
<clipPath id="clip0_50_979">
<rect width="202.147" height="44.2583" fill="white" transform="translate(8.53198 -6.10352e-05) rotate(11.1149)"/>
</clipPath>
</defs>
</svg>
