<svg width="1112" height="500" viewBox="0 0 1112 500" fill="none" xmlns="http://www.w3.org/2000/svg">
<g clip-path="url(#clip0_1_52)">
<path d="M116.587 102.946C49.9346 169.856 12.5547 208 10.1329 211.793C4.13103 221.487 0.761567 231.919 0.129793 243.615C-0.501981 256.997 1.07745 264.794 6.97402 277.017C11.5018 286.396 12.66 287.871 31.0868 306.521L50.3558 326.12L154.177 222.33C224.831 151.627 259.157 116.644 261.579 112.745C266.317 104.948 270.214 92.8304 271.161 83.1362C272.319 69.3328 267.475 51.5252 259.368 40.3559C256.419 36.2465 221.04 -0.000854492 219.987 -0.000854492C219.672 -0.000854492 173.131 46.362 116.587 102.946Z" fill="white"/>
<path d="M150.282 263.109L69.5196 344.033L146.807 422.007L224.094 499.981L245.574 478.38C265.685 458.255 267.371 456.147 271.371 447.823C274.53 441.395 276.215 435.916 277.479 428.54C279.058 419.057 279.058 417.581 277.479 407.993C276.215 400.512 274.636 395.349 271.477 388.815C267.475 380.597 265.37 378.173 247.996 360.577L229.042 341.399L248.523 321.589C268.213 301.78 272.424 296.616 276.636 287.344C282.112 275.648 283.586 257.946 280.427 244.458C276.952 229.707 272.846 223.595 251.681 201.994C240.941 191.141 231.991 182.29 231.675 182.29C231.359 182.29 194.716 218.643 150.282 263.109Z" fill="white"/>
<path d="M436.181 140.17V164.959H384.469V191.738H423.163V215.803H384.469V267.191H353.55V140.17H436.181ZM498.359 268.638C488.474 268.638 479.554 266.527 471.598 262.305C463.763 258.083 457.555 252.052 452.975 244.211C448.514 236.37 446.284 227.203 446.284 216.708C446.284 206.334 448.575 197.227 453.155 189.386C457.736 181.425 464.004 175.333 471.96 171.111C479.916 166.889 488.836 164.778 498.72 164.778C508.605 164.778 517.525 166.889 525.481 171.111C533.436 175.333 539.705 181.425 544.285 189.386C548.866 197.227 551.156 206.334 551.156 216.708C551.156 227.082 548.805 236.25 544.104 244.211C539.524 252.052 533.195 258.083 525.119 262.305C517.163 266.527 508.243 268.638 498.359 268.638ZM498.359 241.859C504.265 241.859 509.268 239.688 513.366 235.345C517.585 231.002 519.695 224.79 519.695 216.708C519.695 208.626 517.645 202.414 513.547 198.071C509.569 193.729 504.627 191.557 498.72 191.557C492.693 191.557 487.691 193.729 483.713 198.071C479.735 202.293 477.746 208.505 477.746 216.708C477.746 224.79 479.675 231.002 483.532 235.345C487.51 239.688 492.452 241.859 498.359 241.859ZM667.188 166.226V267.191H636.269V253.439C633.135 257.902 628.856 261.521 623.431 264.296C618.127 266.949 612.221 268.276 605.711 268.276C597.996 268.276 591.185 266.587 585.278 263.21C579.372 259.712 574.791 254.706 571.537 248.192C568.282 241.678 566.655 234.018 566.655 225.212V166.226H597.393V221.051C597.393 227.806 599.141 233.053 602.636 236.792C606.133 240.532 610.835 242.402 616.741 242.402C622.768 242.402 627.53 240.532 631.025 236.792C634.521 233.053 636.269 227.806 636.269 221.051V166.226H667.188ZM750.874 165.14C762.687 165.14 772.09 169 779.081 176.72C786.193 184.32 789.749 194.814 789.749 208.204V267.191H759.011V212.365C759.011 205.61 757.263 200.363 753.767 196.624C750.272 192.884 745.57 191.014 739.664 191.014C733.757 191.014 729.056 192.884 725.56 196.624C722.065 200.363 720.317 205.61 720.317 212.365V267.191H689.398V166.226H720.317V179.615C723.451 175.152 727.67 171.654 732.974 169.121C738.278 166.467 744.244 165.14 750.874 165.14ZM805.088 216.527C805.088 206.153 807.017 197.046 810.874 189.205C814.852 181.364 820.216 175.333 826.966 171.111C833.717 166.889 841.251 164.778 849.568 164.778C856.198 164.778 862.225 166.165 867.649 168.94C873.194 171.714 877.534 175.454 880.668 180.158V133.294H911.587V267.191H880.668V252.715C877.775 257.54 873.616 261.4 868.192 264.296C862.888 267.191 856.68 268.638 849.568 268.638C841.251 268.638 833.717 266.527 826.966 262.305C820.216 257.963 814.852 251.871 810.874 244.03C807.017 236.069 805.088 226.901 805.088 216.527ZM880.668 216.708C880.668 208.988 878.498 202.896 874.159 198.433C869.94 193.97 864.756 191.738 858.609 191.738C852.461 191.738 847.217 193.97 842.878 198.433C838.659 202.776 836.549 208.807 836.549 216.527C836.549 224.247 838.659 230.399 842.878 234.983C847.217 239.446 852.461 241.678 858.609 241.678C864.756 241.678 869.94 239.446 874.159 234.983C878.498 230.52 880.668 224.428 880.668 216.708ZM1029.06 215.08C1029.06 217.975 1028.88 220.99 1028.52 224.127H958.544C959.026 230.399 961.015 235.224 964.511 238.602C968.127 241.859 972.527 243.487 977.71 243.487C985.425 243.487 990.789 240.23 993.803 233.717H1026.71C1025.02 240.351 1021.95 246.322 1017.49 251.63C1013.15 256.937 1007.66 261.099 1001.04 264.115C994.405 267.13 986.992 268.638 978.795 268.638C968.911 268.638 960.111 266.527 952.396 262.305C944.682 258.083 938.655 252.052 934.315 244.211C929.975 236.37 927.806 227.203 927.806 216.708C927.806 206.213 929.915 197.046 934.134 189.205C938.474 181.364 944.501 175.333 952.216 171.111C959.93 166.889 968.79 164.778 978.795 164.778C988.559 164.778 997.238 166.829 1004.83 170.93C1012.43 175.031 1018.33 180.882 1022.55 188.481C1026.89 196.081 1029.06 204.947 1029.06 215.08ZM997.419 206.937C997.419 201.63 995.611 197.408 991.994 194.271C988.378 191.135 983.858 189.567 978.433 189.567C973.25 189.567 968.85 191.075 965.234 194.09C961.738 197.106 959.569 201.388 958.725 206.937H997.419ZM1076.29 183.053C1079.91 177.504 1084.43 173.162 1089.85 170.025C1095.27 166.768 1101.3 165.14 1107.93 165.14V197.89H1099.43C1091.72 197.89 1085.93 199.579 1082.08 202.957C1078.22 206.213 1076.29 212.004 1076.29 220.327V267.191H1045.37V166.226H1076.29V183.053Z" fill="white"/>
<path d="M437.115 362.939C437.115 352.685 439.476 343.487 444.197 335.345C449.019 327.203 455.498 320.87 463.635 316.346C471.872 311.722 480.862 309.41 490.606 309.41C501.756 309.41 511.651 312.174 520.289 317.703C529.029 323.132 535.357 330.872 539.275 340.924H518.632C515.92 335.395 512.153 331.274 507.331 328.56C502.509 325.846 496.934 324.489 490.606 324.489C483.675 324.489 477.497 326.046 472.073 329.163C466.648 332.279 462.379 336.752 459.265 342.583C456.251 348.413 454.745 355.198 454.745 362.939C454.745 370.679 456.251 377.464 459.265 383.294C462.379 389.125 466.648 393.648 472.073 396.865C477.497 399.981 483.675 401.539 490.606 401.539C496.934 401.539 502.509 400.182 507.331 397.468C512.153 394.754 515.92 390.633 518.632 385.104H539.275C535.357 395.156 529.029 402.896 520.289 408.325C511.651 413.753 501.756 416.467 490.606 416.467C480.762 416.467 471.771 414.205 463.635 409.682C455.498 405.057 449.019 398.674 444.197 390.532C439.476 382.39 437.115 373.192 437.115 362.939ZM635.473 371.986C635.473 375.102 635.274 377.916 634.871 380.429H571.435C571.937 387.064 574.398 392.391 578.818 396.413C583.238 400.434 588.663 402.444 595.091 402.444C604.331 402.444 610.865 398.574 614.68 390.834H633.213C630.7 398.473 626.131 404.756 619.502 409.682C612.974 414.507 604.838 416.919 595.091 416.919C587.156 416.919 580.023 415.16 573.695 411.642C567.467 408.023 562.545 402.997 558.929 396.563C555.413 390.03 553.655 382.49 553.655 373.946C553.655 365.401 555.363 357.913 558.778 351.479C562.294 344.945 567.166 339.919 573.394 336.401C579.722 332.882 586.955 331.123 595.091 331.123C602.927 331.123 609.906 332.832 616.036 336.25C622.166 339.668 626.933 344.493 630.35 350.725C633.768 356.857 635.473 363.944 635.473 371.986ZM617.543 366.557C617.44 360.224 615.18 355.148 610.762 351.328C606.344 347.508 600.868 345.598 594.338 345.598C588.411 345.598 583.338 347.508 579.119 351.328C574.9 355.048 572.39 360.124 571.585 366.557H617.543ZM694.268 331.123C700.795 331.123 706.623 332.48 711.746 335.194C716.966 337.908 721.034 341.929 723.951 347.257C726.862 352.584 728.321 359.018 728.321 366.557V415.562H711.294V369.121C711.294 361.682 709.432 356.002 705.719 352.082C702.001 348.061 696.926 346.051 690.501 346.051C684.07 346.051 678.947 348.061 675.132 352.082C671.413 356.002 669.557 361.682 669.557 369.121V415.562H652.379V332.48H669.557V341.98C672.365 338.562 675.933 335.898 680.255 333.988C684.673 332.078 689.344 331.123 694.268 331.123ZM770.269 346.503V392.492C770.269 395.609 770.975 397.87 772.379 399.277C773.886 400.584 776.399 401.238 779.913 401.238H790.46V415.562H776.899C769.167 415.562 763.236 413.753 759.119 410.134C755.003 406.515 752.942 400.635 752.942 392.492V346.503H743.148V332.48H752.942V311.823H770.269V332.48H790.46V346.503H770.269ZM823.471 344.543C825.978 340.321 829.293 337.054 833.415 334.742C837.634 332.329 842.607 331.123 848.332 331.123V348.916H843.963C837.231 348.916 832.108 350.624 828.594 354.042C825.176 357.46 823.471 363.391 823.471 371.835V415.562H806.293V332.48H823.471V344.543ZM858.392 373.644C858.392 365.301 860.103 357.913 863.515 351.479C867.035 345.045 871.754 340.069 877.678 336.551C883.706 332.932 890.335 331.123 897.568 331.123C904.101 331.123 909.773 332.43 914.594 335.043C919.519 337.557 923.436 340.723 926.347 344.543V332.48H943.675V415.562H926.347V403.198C923.436 407.118 919.47 410.385 914.444 412.999C909.423 415.612 903.697 416.919 897.266 416.919C890.136 416.919 883.609 415.11 877.678 411.491C871.754 407.771 867.035 402.645 863.515 396.111C860.103 389.477 858.392 381.987 858.392 373.644ZM926.347 373.946C926.347 368.216 925.142 363.24 922.731 359.018C920.423 354.796 917.361 351.58 913.54 349.368C909.725 347.156 905.608 346.051 901.184 346.051C896.766 346.051 892.65 347.156 888.829 349.368C885.013 351.479 881.897 354.645 879.487 358.867C877.178 362.989 876.021 367.914 876.021 373.644C876.021 379.374 877.178 384.4 879.487 388.723C881.897 393.045 885.013 396.363 888.829 398.674C892.746 400.886 896.869 401.992 901.184 401.992C905.608 401.992 909.725 400.886 913.54 398.674C917.361 396.463 920.423 393.246 922.731 389.024C925.142 384.701 926.347 379.676 926.347 373.946ZM983.418 303.982V415.562H966.241V303.982H983.418Z" fill="white"/>
</g>
<defs>
<clipPath id="clip0_1_52">
<rect width="1112" height="500" fill="white"/>
</clipPath>
</defs>
</svg>
