<svg width="824" height="550" viewBox="0 0 824 550" fill="none" xmlns="http://www.w3.org/2000/svg">
<g clip-path="url(#clip0_124_587)">
<path d="M120.757 465.027L697.321 468.202L729.837 120.415L86.6558 77.5359L120.757 465.027Z" fill="#EE217F" fill-opacity="0.6"/>
<path d="M169.505 146.733C175.471 140.759 175.471 131.074 169.505 125.101C163.539 119.127 153.866 119.127 147.899 125.101C141.933 131.074 141.933 140.759 147.899 146.733C153.866 152.706 163.539 152.706 169.505 146.733Z" fill="#FFBD59"/>
<path d="M367.626 81.2413H334.361C334.229 81.2413 334.122 81.3487 334.122 81.4811V114.913C334.122 115.045 334.229 115.153 334.361 115.153H367.626C367.758 115.153 367.865 115.045 367.865 114.913V81.4811C367.865 81.3487 367.758 81.2413 367.626 81.2413Z" fill="#FFBD59"/>
<path d="M107.682 486.507L713.994 473.31L721.317 392.665L82.7856 256.298L107.682 486.507Z" fill="#4DA4E0"/>
<path d="M561.225 371.643L574.053 370.208L602.304 123.004L575.863 109.799L561.225 371.643Z" fill="#193584"/>
<path d="M575.185 128.406L270.089 158.509C269.657 158.552 269.307 158.894 269.307 159.273V339.852C269.322 340.054 269.405 340.244 269.542 340.393C269.68 340.541 269.863 340.638 270.062 340.669L560.799 390.364C561.216 390.435 561.572 390.05 561.593 389.506L575.928 129.313C575.951 128.771 575.617 128.363 575.185 128.406Z" fill="#193584"/>
<path d="M575.61 109.684L270.515 139.792C270.084 139.834 269.733 140.176 269.733 140.555V321.131C269.749 321.333 269.832 321.524 269.969 321.672C270.107 321.82 270.291 321.917 270.491 321.947L561.225 371.643C561.642 371.714 561.998 371.329 562.019 370.785L576.355 110.592C576.376 110.049 576.043 109.647 575.61 109.684Z" fill="#4DA4E0"/>
<path d="M273.568 310.034L558.482 353.352L567.401 119.925L273.686 146.055L273.568 310.034Z" fill="white"/>
<path d="M273.677 156.53L566.833 134.836L567.409 119.738L273.686 145.923L273.677 156.53Z" fill="#FFBD59"/>
<path d="M282.44 147.68C280.704 147.828 279.296 149.147 279.292 150.624C279.288 152.101 280.701 153.191 282.428 153.055C284.155 152.919 285.571 151.603 285.574 150.111C285.578 148.62 284.174 147.532 282.44 147.68Z" fill="#FF665B"/>
<path d="M292.915 146.785C291.179 146.933 289.768 148.269 289.761 149.769C289.754 151.269 291.157 152.375 292.892 152.237C294.626 152.1 296.036 150.767 296.043 149.253C296.05 147.738 294.649 146.635 292.915 146.785Z" fill="#F19E20"/>
<path d="M303.912 145.843C302.176 145.992 300.762 147.347 300.755 148.87C300.748 150.393 302.144 151.514 303.878 151.382C305.613 151.25 307.026 149.893 307.035 148.355C307.044 146.818 305.655 145.694 303.912 145.843Z" fill="#65A896"/>
<path d="M394.879 235.925L540.757 241.425L544.079 147.647L396.36 156.672L394.879 235.925Z" fill="#FFBD59"/>
<path d="M377.454 315.335L552.9 339.604L556.255 250.484L378.73 242.619L377.454 315.335Z" fill="#648AF5"/>
<path d="M378.607 249.622L555.932 259.066L556.26 250.352L378.732 242.511L378.607 249.622Z" fill="#193584"/>
<path d="M465.613 163.158C449.008 163.971 435.199 179.261 434.769 197.313C434.34 215.364 447.325 230.381 463.768 230.854C480.211 231.326 494.02 216.046 494.611 196.699C495.203 177.352 482.22 162.345 465.613 163.158Z" fill="#EE217F"/>
<path d="M453.809 219.163L483.005 195.795L454.959 175.062L453.809 219.163Z" fill="white"/>
<path d="M288.52 303.614L371.545 314.85L374.018 158.973L288.977 164.487L288.52 303.614Z" fill="#EE217F"/>
<path d="M288.687 173.574L373.844 169.446L374.019 158.973L288.719 164.231L288.687 173.574Z" fill="#193584"/>
<path d="M369.62 161.735L364.65 166.939C364.552 167.036 364.497 167.167 364.494 167.305C364.492 167.443 364.543 167.576 364.637 167.676C364.686 167.722 364.743 167.757 364.805 167.779C364.868 167.802 364.934 167.811 365 167.806C365.139 167.799 365.27 167.739 365.366 167.639L370.337 162.437C370.435 162.339 370.492 162.207 370.494 162.068C370.496 161.929 370.443 161.795 370.347 161.695C370.297 161.649 370.238 161.614 370.174 161.592C370.111 161.569 370.043 161.559 369.975 161.563C369.908 161.567 369.841 161.584 369.78 161.614C369.719 161.643 369.665 161.684 369.62 161.735Z" fill="white"/>
<path d="M365.454 161.98C365.404 161.935 365.345 161.9 365.281 161.877C365.217 161.855 365.149 161.845 365.081 161.849C365.013 161.853 364.947 161.871 364.886 161.9C364.825 161.93 364.77 161.972 364.725 162.023C364.629 162.12 364.573 162.25 364.571 162.388C364.569 162.525 364.62 162.657 364.713 162.758L369.529 167.422C369.575 167.467 369.63 167.502 369.691 167.525C369.752 167.548 369.816 167.558 369.881 167.554C370.021 167.545 370.152 167.482 370.247 167.378C370.345 167.281 370.402 167.149 370.404 167.01C370.406 166.872 370.354 166.738 370.259 166.638L365.454 161.98Z" fill="white"/>
<path d="M361.236 162.335L355.095 162.687C355.081 162.688 355.067 162.694 355.058 162.704C355.048 162.714 355.042 162.728 355.042 162.742L355.031 163.406C355.031 163.413 355.033 163.419 355.035 163.425C355.038 163.431 355.042 163.437 355.046 163.441C355.051 163.446 355.057 163.449 355.063 163.451C355.069 163.454 355.076 163.454 355.082 163.454L361.225 163.101C361.239 163.1 361.252 163.094 361.262 163.084C361.272 163.074 361.277 163.061 361.278 163.047V162.379C361.277 162.368 361.273 162.357 361.265 162.349C361.257 162.341 361.247 162.336 361.236 162.335Z" fill="white"/>
<path d="M361.204 164.459L355.065 164.801C355.051 164.802 355.037 164.808 355.028 164.818C355.018 164.828 355.012 164.841 355.012 164.855V165.52C355.011 165.527 355.013 165.533 355.015 165.539C355.018 165.546 355.021 165.551 355.026 165.556C355.031 165.56 355.037 165.564 355.043 165.566C355.05 165.568 355.056 165.568 355.063 165.568L361.202 165.233C361.216 165.231 361.229 165.225 361.239 165.215C361.249 165.205 361.254 165.192 361.255 165.178L361.264 164.508C361.265 164.501 361.263 164.493 361.26 164.486C361.257 164.479 361.253 164.473 361.247 164.468C361.241 164.463 361.234 164.46 361.227 164.458C361.219 164.457 361.211 164.457 361.204 164.459Z" fill="white"/>
<path d="M361.176 166.391L355.038 166.719C355.024 166.719 355.011 166.724 355.001 166.734C354.991 166.744 354.986 166.758 354.986 166.772L354.975 167.436C354.975 167.443 354.976 167.449 354.979 167.455C354.982 167.461 354.985 167.467 354.99 167.471C354.995 167.476 355.001 167.479 355.007 167.481C355.013 167.483 355.02 167.484 355.026 167.484L361.164 167.165C361.178 167.164 361.191 167.158 361.201 167.148C361.211 167.138 361.216 167.124 361.217 167.11L361.227 166.44C361.227 166.434 361.226 166.427 361.223 166.421C361.221 166.415 361.217 166.409 361.212 166.405C361.207 166.4 361.202 166.397 361.196 166.394C361.189 166.392 361.183 166.391 361.176 166.391Z" fill="white"/>
<path d="M302.209 177.678C297.619 177.87 293.885 181.433 293.865 185.636C293.848 189.836 297.543 193.166 302.121 193.073C306.699 192.979 310.435 189.417 310.465 185.117C310.495 180.818 306.801 177.486 302.209 177.678Z" fill="#FFBD59"/>
<path d="M288.676 202.176L373.311 201.503L373.332 200.221L288.68 201.032L288.676 202.176Z" fill="#193584"/>
<path d="M288.578 230.988L372.77 233.791L372.791 232.509L288.581 229.844L288.578 230.988Z" fill="#193584"/>
<path d="M288.481 259.33L372.24 265.553L372.261 264.27L288.484 258.184L288.481 259.33Z" fill="#193584"/>
<path d="M362.961 180.64C362.018 180.681 361.126 181.079 360.465 181.754C359.804 182.429 359.424 183.33 359.401 184.275C359.391 184.73 359.474 185.183 359.644 185.605C359.814 186.027 360.069 186.411 360.392 186.731C360.716 187.051 361.101 187.302 361.524 187.469C361.948 187.635 362.401 187.713 362.856 187.698C363.801 187.663 364.697 187.266 365.36 186.59C366.022 185.913 366.4 185.009 366.416 184.061C366.43 183.605 366.35 183.151 366.181 182.727C366.012 182.303 365.757 181.918 365.433 181.597C365.109 181.276 364.722 181.025 364.297 180.86C363.872 180.696 363.417 180.621 362.961 180.64Z" fill="white"/>
<path d="M340.527 177.075L315.111 178.107C314.942 178.112 314.78 178.181 314.659 178.301C314.538 178.42 314.466 178.58 314.458 178.75V178.805C314.46 178.887 314.478 178.969 314.512 179.044C314.547 179.119 314.596 179.186 314.657 179.242C314.718 179.297 314.79 179.34 314.868 179.366C314.946 179.393 315.029 179.403 315.111 179.397L340.52 178.412C340.694 178.405 340.859 178.332 340.983 178.209C341.106 178.085 341.178 177.92 341.185 177.745V177.692C341.186 177.607 341.169 177.523 341.136 177.445C341.102 177.367 341.053 177.297 340.991 177.239C340.929 177.181 340.856 177.137 340.776 177.108C340.696 177.08 340.611 177.069 340.527 177.075Z" fill="#FFBD59"/>
<path d="M351.586 182.392L315.069 183.6C314.898 183.603 314.735 183.671 314.612 183.79C314.489 183.909 314.416 184.07 314.407 184.241V184.294C314.409 184.377 314.427 184.458 314.461 184.534C314.495 184.609 314.544 184.677 314.605 184.733C314.666 184.789 314.737 184.832 314.815 184.859C314.893 184.886 314.976 184.897 315.059 184.892L351.568 183.749C351.743 183.742 351.909 183.669 352.033 183.545C352.156 183.42 352.228 183.253 352.234 183.078V183.021C352.235 182.937 352.219 182.853 352.187 182.774C352.154 182.696 352.106 182.625 352.046 182.566C351.985 182.508 351.913 182.462 351.834 182.432C351.755 182.402 351.67 182.388 351.586 182.392Z" fill="#FFBD59"/>
<path d="M351.504 188.414L315.023 189.336C314.853 189.337 314.689 189.403 314.567 189.521C314.444 189.639 314.371 189.8 314.363 189.97V190.025C314.364 190.108 314.383 190.189 314.416 190.265C314.45 190.341 314.499 190.409 314.559 190.465C314.62 190.521 314.692 190.565 314.769 190.593C314.847 190.621 314.93 190.633 315.012 190.628L351.487 189.771C351.661 189.765 351.827 189.693 351.95 189.57C352.074 189.446 352.145 189.28 352.151 189.105V189.048C352.152 188.964 352.135 188.88 352.103 188.801C352.071 188.723 352.023 188.652 351.963 188.593C351.902 188.534 351.831 188.487 351.752 188.456C351.673 188.426 351.589 188.411 351.504 188.414Z" fill="#FFBD59"/>
<path d="M293.705 223.05L310.194 223.408L310.305 207.835L293.77 207.833L293.705 223.05Z" fill="white"/>
<path d="M362.465 213.349C361.767 213.332 361.08 213.524 360.491 213.899C359.902 214.274 359.438 214.816 359.157 215.455C358.876 216.095 358.792 216.804 358.914 217.492C359.037 218.18 359.361 218.816 359.845 219.32C360.329 219.823 360.952 220.171 361.634 220.319C362.316 220.467 363.027 220.409 363.676 220.152C364.325 219.895 364.883 219.45 365.28 218.875C365.676 218.3 365.893 217.619 365.902 216.92C365.913 216.459 365.833 216 365.666 215.571C365.499 215.141 365.248 214.748 364.928 214.416C364.609 214.084 364.226 213.819 363.803 213.635C363.381 213.452 362.926 213.355 362.465 213.349Z" fill="white"/>
<path d="M340.15 208.841L314.87 208.804C314.701 208.801 314.538 208.864 314.415 208.979C314.292 209.095 314.219 209.254 314.211 209.423V209.476C314.213 209.559 314.231 209.641 314.265 209.718C314.299 209.794 314.347 209.863 314.407 209.921C314.467 209.978 314.538 210.023 314.616 210.054C314.693 210.084 314.776 210.098 314.859 210.096L340.134 210.179C340.306 210.18 340.471 210.114 340.595 209.994C340.719 209.875 340.791 209.712 340.796 209.539V209.483C340.796 209.398 340.779 209.314 340.747 209.236C340.714 209.158 340.666 209.087 340.606 209.027C340.546 208.968 340.475 208.921 340.397 208.889C340.318 208.857 340.234 208.841 340.15 208.841Z" fill="#FFBD59"/>
<path d="M351.151 214.625L314.828 214.297C314.66 214.292 314.496 214.354 314.373 214.468C314.249 214.583 314.176 214.742 314.169 214.911V214.964C314.173 215.132 314.242 215.292 314.361 215.409C314.481 215.527 314.642 215.593 314.81 215.593L351.124 215.984C351.297 215.986 351.463 215.919 351.587 215.799C351.711 215.678 351.783 215.514 351.786 215.341V215.284C351.789 215.113 351.724 214.947 351.605 214.823C351.486 214.7 351.322 214.628 351.151 214.625Z" fill="#FFBD59"/>
<path d="M351.068 220.647L314.782 220.033C314.699 220.03 314.616 220.043 314.538 220.071C314.46 220.1 314.388 220.144 314.327 220.2C314.266 220.257 314.217 220.325 314.182 220.401C314.147 220.476 314.128 220.558 314.125 220.642V220.695C314.13 220.863 314.2 221.024 314.32 221.142C314.441 221.26 314.603 221.326 314.772 221.326L351.042 222.004C351.127 222.006 351.212 221.991 351.291 221.96C351.37 221.928 351.443 221.882 351.504 221.822C351.566 221.763 351.615 221.692 351.648 221.614C351.682 221.536 351.701 221.452 351.702 221.366V221.31C351.703 221.138 351.638 220.973 351.52 220.849C351.401 220.726 351.239 220.653 351.068 220.647Z" fill="#FFBD59"/>
<path d="M301.874 236.084C297.332 235.908 293.634 239.164 293.617 243.364C293.599 247.565 297.256 251.2 301.786 251.473C306.317 251.747 310.014 248.494 310.046 244.193C310.077 239.892 306.419 236.266 301.874 236.084Z" fill="#FFBD59"/>
<path d="M361.997 243.994C361.543 243.972 361.09 244.042 360.665 244.2C360.239 244.359 359.85 244.602 359.521 244.915C359.192 245.228 358.929 245.604 358.75 246.022C358.57 246.439 358.477 246.889 358.475 247.343C358.467 248.28 358.816 249.184 359.451 249.872C360.086 250.56 360.959 250.979 361.893 251.045C362.347 251.069 362.801 251 363.227 250.842C363.653 250.685 364.043 250.442 364.373 250.129C364.702 249.815 364.965 249.438 365.144 249.019C365.323 248.601 365.415 248.151 365.414 247.696C365.429 246.757 365.083 245.848 364.446 245.159C363.81 244.469 362.933 244.052 361.997 243.994Z" fill="white"/>
<path d="M339.798 238.6L314.645 237.563C314.563 237.557 314.48 237.568 314.402 237.595C314.324 237.622 314.253 237.664 314.191 237.72C314.13 237.775 314.081 237.842 314.046 237.917C314.012 237.992 313.992 238.073 313.99 238.155V238.21C313.993 238.381 314.062 238.544 314.182 238.665C314.302 238.787 314.464 238.857 314.634 238.862L339.782 239.945C339.866 239.949 339.95 239.937 340.028 239.908C340.107 239.879 340.179 239.835 340.241 239.778C340.302 239.72 340.351 239.651 340.385 239.575C340.419 239.498 340.437 239.415 340.439 239.331V239.275C340.439 239.101 340.373 238.934 340.254 238.808C340.134 238.683 339.971 238.608 339.798 238.6Z" fill="#FFBD59"/>
<path d="M350.742 244.822L314.601 243.06C314.519 243.053 314.436 243.063 314.359 243.09C314.281 243.116 314.209 243.158 314.148 243.213C314.087 243.268 314.037 243.334 314.002 243.409C313.968 243.483 313.948 243.564 313.946 243.647V243.701C313.951 243.871 314.02 244.033 314.14 244.154C314.259 244.275 314.42 244.346 314.59 244.353L350.728 246.18C350.813 246.184 350.897 246.172 350.976 246.143C351.056 246.114 351.128 246.07 351.19 246.012C351.252 245.954 351.301 245.884 351.335 245.807C351.368 245.729 351.386 245.645 351.387 245.561V245.505C351.387 245.33 351.321 245.161 351.201 245.034C351.081 244.907 350.917 244.831 350.742 244.822Z" fill="#FFBD59"/>
<path d="M350.66 250.849L314.555 248.796C314.474 248.788 314.391 248.798 314.314 248.824C314.236 248.849 314.164 248.891 314.103 248.945C314.042 249 313.992 249.066 313.958 249.141C313.923 249.215 313.904 249.295 313.902 249.377V249.432C313.907 249.603 313.976 249.765 314.096 249.886C314.215 250.008 314.376 250.08 314.546 250.088L350.64 252.203C350.724 252.209 350.808 252.197 350.887 252.168C350.967 252.14 351.039 252.096 351.101 252.038C351.162 251.981 351.211 251.911 351.245 251.834C351.279 251.757 351.296 251.674 351.297 251.59V251.533C351.297 251.36 351.231 251.193 351.112 251.066C350.994 250.939 350.832 250.862 350.66 250.849Z" fill="#FFBD59"/>
<path d="M360 292.575C358.239 292.38 356.785 293.677 356.759 295.473C356.732 297.27 358.139 298.897 359.901 299.107C361.664 299.316 363.115 298.022 363.143 296.21C363.171 294.398 361.763 292.773 360 292.575Z" fill="white"/>
<path d="M346.888 291.117C346.484 291.062 346.072 291.093 345.681 291.211C345.29 291.328 344.929 291.529 344.622 291.798C344.316 292.068 344.07 292.4 343.903 292.773C343.736 293.146 343.651 293.55 343.654 293.959C343.663 294.835 343.986 295.678 344.565 296.335C345.143 296.992 345.939 297.418 346.806 297.536C347.21 297.594 347.622 297.564 348.014 297.448C348.406 297.331 348.768 297.131 349.075 296.861C349.382 296.591 349.627 296.258 349.794 295.884C349.96 295.511 350.043 295.105 350.038 294.696C350.036 293.819 349.715 292.972 349.135 292.314C348.556 291.655 347.757 291.23 346.888 291.117Z" fill="white"/>
<path d="M331.928 289.455C330.167 289.259 328.72 290.502 328.702 292.232C328.685 293.961 330.099 295.535 331.861 295.747C333.623 295.958 335.067 294.714 335.087 292.97C335.106 291.227 333.692 289.649 331.928 289.455Z" fill="white"/>
<path d="M384.943 266.216L550.018 278.422L550.347 269.558L385.079 258.884L384.943 266.216Z" fill="white"/>
<path d="M397.77 267.164L417.835 268.649L418.009 261.01L397.92 259.713L397.77 267.164Z" fill="#EE217F"/>
<path d="M456.413 271.501L466.033 272.211L466.264 264.127L456.633 263.505L456.413 271.501Z" fill="#EE217F"/>
<path d="M472.756 272.71L487.132 273.773L487.387 265.491L472.994 264.562L472.756 272.71Z" fill="#EE217F"/>
<path d="M427.35 269.352L433.97 269.842L434.163 262.054L427.536 261.625L427.35 269.352Z" fill="#FFBD59"/>
<path d="M500.784 274.781L520.229 276.22L520.525 267.631L501.057 266.375L500.784 274.781Z" fill="#FFBD59"/>
<path d="M384.741 277.216L549.524 291.717L549.853 282.853L384.877 269.883L384.741 277.216Z" fill="white"/>
<path d="M525.519 289.605L540.851 290.954L541.171 282.171L525.82 280.964L525.519 289.605Z" fill="#FFBD59"/>
<path d="M403.79 278.892L449.476 282.912L449.689 274.979L403.948 271.383L403.79 278.892Z" fill="#FFBD59"/>
<path d="M437.899 270.131L440.796 270.346L440.996 262.496L438.097 262.308L437.899 270.131Z" fill="#FFBD59"/>
<path d="M490.31 286.536L493.201 286.791L493.463 278.452L490.571 278.222L490.31 286.536Z" fill="#EE217F"/>
<path d="M463.905 284.212L466.796 284.466L467.028 276.371L464.134 276.144L463.905 284.212Z" fill="#EE217F"/>
<path d="M391.117 277.803L394.006 278.058L394.154 270.639L391.259 270.411L391.117 277.803Z" fill="#EE217F"/>
<path d="M470.719 284.812L473.61 285.066L473.849 276.907L470.956 276.68L470.719 284.812Z" fill="#EE217F"/>
<path d="M482.772 285.873L487.627 286.3L487.882 278.013L483.024 277.63L482.772 285.873Z" fill="#EE217F"/>
<path d="M445.553 270.699L448.45 270.912L448.659 262.99L445.761 262.803L445.553 270.699Z" fill="#FFBD59"/>
<path d="M384.503 290.035L483.75 300.402L484.001 292.159L384.639 282.714L384.503 290.035Z" fill="white"/>
<path d="M392.215 290.841L404.28 292.101L404.438 284.595L392.36 283.448L392.215 290.841Z" fill="#EE217F"/>
<path d="M427.473 294.525L433.257 295.128L433.448 287.354L427.659 286.802L427.473 294.525Z" fill="#EE217F"/>
<path d="M437.297 295.551L445.942 296.454L446.15 288.56L437.495 287.738L437.297 295.551Z" fill="#EE217F"/>
<path d="M410 292.699L413.979 293.115L414.15 285.519L410.166 285.14L410 292.699Z" fill="#FFBD59"/>
<path d="M454.151 297.31L465.84 298.532L466.073 290.455L454.367 289.342L454.151 297.31Z" fill="#FFBD59"/>
<path d="M384.301 301.018L483.371 312.77L483.623 304.526L384.436 293.697L384.301 301.018Z" fill="white"/>
<path d="M468.938 311.057L478.157 312.151L478.402 303.954L469.174 302.948L468.938 311.057Z" fill="#FFBD59"/>
<path d="M395.754 302.377L423.222 305.634L423.402 297.95L395.902 294.948L395.754 302.377Z" fill="#FFBD59"/>
<path d="M416.342 293.362L418.083 293.543L418.259 285.908L416.514 285.743L416.342 293.362Z" fill="#FFBD59"/>
<path d="M447.772 308.576L449.51 308.783L449.721 300.853L447.982 300.663L447.772 308.576Z" fill="#EE217F"/>
<path d="M431.896 306.692L433.633 306.898L433.827 299.117L432.087 298.927L431.896 306.692Z" fill="#EE217F"/>
<path d="M388.134 301.5L389.872 301.705L390.014 294.333L388.273 294.142L388.134 301.5Z" fill="#EE217F"/>
<path d="M435.993 307.179L437.73 307.385L437.929 299.565L436.188 299.375L435.993 307.179Z" fill="#EE217F"/>
<path d="M443.24 308.039L446.157 308.384L446.365 300.487L443.444 300.168L443.24 308.039Z" fill="#EE217F"/>
<path d="M420.944 293.843L422.686 294.024L422.865 286.347L421.122 286.182L420.944 293.843Z" fill="#FFBD59"/>
<path d="M397.995 256.069L385.562 255.322C385.479 255.318 385.396 255.331 385.319 255.36C385.242 255.389 385.171 255.434 385.112 255.492C385.052 255.55 385.005 255.619 384.974 255.695C384.942 255.772 384.926 255.854 384.928 255.937C384.922 256.108 384.981 256.275 385.095 256.403C385.208 256.531 385.366 256.611 385.537 256.626L397.967 257.393C398.051 257.396 398.134 257.383 398.212 257.353C398.289 257.323 398.36 257.277 398.42 257.218C398.479 257.16 398.526 257.09 398.558 257.013C398.589 256.935 398.605 256.852 398.603 256.769C398.61 256.596 398.552 256.428 398.439 256.298C398.326 256.167 398.167 256.086 397.995 256.069Z" fill="#EE217F"/>
<path d="M397.506 280.246L385.122 279.127C385.04 279.12 384.958 279.13 384.88 279.157C384.803 279.184 384.732 279.227 384.673 279.283C384.613 279.34 384.566 279.408 384.534 279.483C384.503 279.559 384.487 279.641 384.489 279.723C384.485 279.895 384.545 280.062 384.658 280.192C384.77 280.322 384.926 280.406 385.097 280.428L397.48 281.566C397.562 281.573 397.645 281.562 397.722 281.534C397.8 281.507 397.871 281.463 397.931 281.406C397.991 281.349 398.038 281.28 398.069 281.203C398.1 281.127 398.115 281.044 398.112 280.962C398.116 280.789 398.057 280.62 397.945 280.489C397.833 280.357 397.677 280.27 397.506 280.246Z" fill="#EE217F"/>
<path d="M368.289 79.5843H334.178C334.022 79.5843 333.868 79.615 333.724 79.6748C333.58 79.7345 333.449 79.822 333.339 79.9324C333.229 80.0427 333.142 80.1737 333.082 80.3179C333.023 80.462 332.992 80.6165 332.993 80.7724V114.92C332.992 115.076 333.023 115.23 333.082 115.375C333.142 115.519 333.229 115.65 333.339 115.76C333.449 115.87 333.58 115.958 333.724 116.018C333.868 116.077 334.022 116.108 334.178 116.108H368.284C368.599 116.108 368.9 115.983 369.123 115.76C369.345 115.537 369.471 115.235 369.471 114.92V80.7724C369.471 80.4581 369.347 80.1564 369.125 79.9336C368.904 79.7109 368.603 79.5852 368.289 79.5843ZM367.102 113.732H335.37V81.9606H367.102V113.732Z" fill="#EE217F"/>
<path d="M365.506 85.0772C365.254 84.8885 364.938 84.8073 364.626 84.8512C364.315 84.8951 364.033 85.0607 363.844 85.3117L348.661 105.492L340.296 96.6026C340.08 96.373 339.782 96.2387 339.468 96.2291C339.153 96.2195 338.847 96.3355 338.618 96.5515C338.389 96.7675 338.255 97.0658 338.245 97.3808C338.236 97.6959 338.351 98.0019 338.567 98.2314L347.899 108.154C348.01 108.272 348.144 108.367 348.292 108.431C348.441 108.495 348.601 108.528 348.763 108.528H348.828C349.001 108.519 349.169 108.472 349.321 108.391C349.473 108.309 349.605 108.195 349.709 108.057L365.742 86.7519C365.837 86.6268 365.906 86.4839 365.946 86.3318C365.985 86.1796 365.994 86.021 365.972 85.8653C365.951 85.7096 365.898 85.5598 365.818 85.4245C365.738 85.2892 365.632 85.1712 365.506 85.0772Z" fill="#EE217F"/>
<path d="M167.832 132.963L153.965 123.2C153.858 123.123 153.731 123.077 153.6 123.068C153.468 123.06 153.336 123.088 153.22 123.151C153.103 123.211 153.004 123.303 152.936 123.416C152.867 123.529 152.831 123.658 152.831 123.791V142.663C152.831 142.793 152.867 142.921 152.934 143.032C153 143.144 153.096 143.235 153.21 143.297C153.324 143.359 153.453 143.388 153.583 143.383C153.713 143.378 153.839 143.337 153.947 143.266L167.814 134.151C167.913 134.086 167.994 133.999 168.051 133.895C168.108 133.792 168.139 133.677 168.141 133.559C168.142 133.441 168.115 133.324 168.061 133.219C168.008 133.114 167.929 133.024 167.832 132.957V132.963ZM154.275 141.329V125.18L166.142 133.532L154.275 141.329Z" fill="#EE217F"/>
<path d="M158.324 118.444C155.356 118.444 152.455 119.325 149.987 120.976C147.519 122.627 145.596 124.973 144.46 127.719C143.324 130.464 143.027 133.485 143.606 136.4C144.185 139.314 145.614 141.991 147.713 144.092C149.812 146.194 152.486 147.625 155.397 148.204C158.308 148.784 161.325 148.486 164.067 147.349C166.809 146.212 169.153 144.286 170.801 141.816C172.45 139.345 173.33 136.44 173.33 133.468C173.326 129.485 171.744 125.666 168.931 122.849C166.117 120.032 162.303 118.448 158.324 118.444ZM158.324 147.047C155.643 147.047 153.022 146.251 150.792 144.76C148.563 143.268 146.825 141.148 145.799 138.668C144.773 136.188 144.504 133.459 145.027 130.826C145.551 128.193 146.842 125.774 148.738 123.876C150.634 121.977 153.049 120.685 155.679 120.161C158.309 119.637 161.035 119.906 163.512 120.933C165.99 121.961 168.107 123.7 169.597 125.933C171.086 128.165 171.881 130.789 171.881 133.474C171.876 137.072 170.446 140.521 167.904 143.066C165.363 145.61 161.918 147.042 158.324 147.047Z" fill="#EE217F"/>
<path d="M693.6 315.139C698.325 315.139 702.155 309.163 702.155 301.791C702.155 294.419 698.325 288.443 693.6 288.443C688.875 288.443 685.045 294.419 685.045 301.791C685.045 309.163 688.875 315.139 693.6 315.139Z" fill="#FF9900"/>
<path d="M720.887 324.768C720.382 329.483 717.938 333.258 714.769 334.315C717.938 335.373 720.382 339.147 720.887 343.863C721.393 339.147 723.838 335.375 727.008 334.315C723.838 333.258 721.393 329.483 720.887 324.768Z" fill="#FF9900"/>
<path d="M697.583 357.202C697.077 361.916 694.632 365.69 691.464 366.75C694.634 367.807 697.077 371.581 697.583 376.295C698.088 371.581 700.534 367.807 703.701 366.75C700.528 365.69 698.083 361.916 697.583 357.202Z" fill="#FF9900"/>
<path d="M206.766 110.931C213.12 110.931 218.272 102.893 218.272 92.9782C218.272 83.0633 213.12 75.0256 206.766 75.0256C200.411 75.0256 195.26 83.0633 195.26 92.9782C195.26 102.893 200.411 110.931 206.766 110.931Z" fill="#FF9900"/>
<path d="M243.464 149.558C248.009 149.558 251.693 143.81 251.693 136.719C251.693 129.628 248.009 123.88 243.464 123.88C238.919 123.88 235.234 129.628 235.234 136.719C235.234 143.81 238.919 149.558 243.464 149.558Z" fill="#FF9900"/>
<path d="M140.902 253.67C145.447 253.67 149.132 247.922 149.132 240.831C149.132 233.741 145.447 227.993 140.902 227.993C136.357 227.993 132.673 233.741 132.673 240.831C132.673 247.922 136.357 253.67 140.902 253.67Z" fill="#FF9900"/>
<path d="M265.413 81.5516C265.061 84.8216 263.367 87.4394 261.169 88.1727C263.367 88.9078 265.062 91.5221 265.413 94.7956C265.765 91.5256 267.459 88.9078 269.658 88.1727C267.459 87.4359 265.763 84.8216 265.413 81.5516Z" fill="#FF9900"/>
<path d="M125.34 222.203C127.684 222.203 129.585 219.238 129.585 215.581C129.585 211.923 127.684 208.958 125.34 208.958C122.995 208.958 121.095 211.923 121.095 215.581C121.095 219.238 122.995 222.203 125.34 222.203Z" fill="#FF9900"/>
<path d="M212.115 193.175C216.66 193.175 220.344 187.427 220.344 180.337C220.344 173.246 216.66 167.498 212.115 167.498C207.57 167.498 203.885 173.246 203.885 180.337C203.885 187.427 207.57 193.175 212.115 193.175Z" fill="#FF9900"/>
<path d="M207.248 242.885C206.476 242.886 205.706 242.787 204.959 242.591C203.606 242.223 202.353 241.551 201.297 240.627C200.141 239.628 199.191 238.412 198.5 237.048L198.54 237.031C199.228 238.389 200.175 239.599 201.325 240.595C202.377 241.514 203.624 242.182 204.972 242.548C206.613 242.984 208.393 242.933 210.264 242.397L210.277 242.439C209.293 242.728 208.274 242.878 207.248 242.885Z" fill="#EE217F" fill-opacity="0.2"/>
<path d="M404.38 354.057C380.963 357.935 367.18 386.267 367.18 386.267C370.341 402.517 383.41 400.649 401.514 393.458C419.617 386.267 429.29 366.207 429.184 364.474C428.89 359.728 427.79 350.174 404.38 354.057Z" fill="#2F53A5"/>
<path d="M378.586 365.382L353.556 384.891L360.378 397.024C369.798 397.269 380.785 393.146 385.428 388.998C390.07 384.85 402.769 370.321 402.769 370.321L385.69 364.234C384.505 363.812 383.233 363.696 381.991 363.896C380.749 364.097 379.578 364.608 378.586 365.382Z" fill="#F9B497"/>
<path d="M397.932 374.294C397.932 374.294 405.73 372.094 403.484 369.032C401.237 365.97 395.686 365.761 393.759 365.306C391.833 364.851 381.334 360.444 378.917 362.431C376.499 364.417 373.568 371.839 373.568 371.839L393.656 379.033C393.656 379.033 407.037 384.996 411.586 383.378C416.136 381.76 397.932 374.294 397.932 374.294Z" fill="#F9B497"/>
<path d="M409.377 368.858C407.403 367.675 399.749 366.582 399.749 366.582L401.665 365.798C403.58 365.013 407.14 367.032 412.646 366.522C418.152 366.013 416.632 362.898 416.632 362.898C416.632 362.898 405.378 360.294 403.075 359.501C400.772 358.708 388.794 362.864 388.794 362.864C388.794 362.864 393.215 360.306 399.562 358.203C405.91 356.1 405.373 353.581 405.373 353.581C405.373 353.581 400.332 353.405 396.745 354.376C393.159 355.348 383.577 358.032 381.537 359.116C379.496 360.201 370.538 372.338 370.538 372.338L395.927 374.871L400.397 373.039C400.397 373.039 407.227 372.729 412.114 374.955C417.002 377.182 417.925 375.807 419.458 374.682C420.992 373.558 411.35 370.039 409.377 368.858Z" fill="#F9B497"/>
<path d="M284.548 398.731L259.062 413.891C258.16 426.989 256.197 432.311 270.14 441.431C284.083 450.552 350.977 406.263 377.244 389.217L356.322 383.491C333.717 389.839 284.548 398.731 284.548 398.731Z" fill="#F9B497"/>
<path d="M242.42 245.737C247.855 248.505 252.443 247.532 252.892 247.128C253.341 246.724 253.98 243.699 253.98 243.699C253.98 243.699 236.988 242.961 242.42 245.737Z" fill="white"/>
<path d="M242.041 343.292C242.041 343.292 248.888 433.883 268.465 440.802C288.042 447.721 299.732 402.549 299.732 402.549L282.817 330.395L242.041 343.292Z" fill="#F9B497"/>
<path d="M276.972 364.904L246.114 378.4C250.052 404.692 257.122 436.793 268.464 440.804C268.897 440.955 269.321 441.052 269.746 441.156C269.883 441.248 269.999 441.333 270.14 441.428C272.049 442.676 274.977 442.895 278.63 442.348C278.595 442.225 278.576 442.119 278.539 441.995C270.996 416.593 288.52 398.565 297.144 391.512L291.268 366.45L276.972 364.904Z" fill="#F29E81"/>
<path d="M195.409 242.065C195.409 242.065 192.944 269.281 184.328 279.046C175.711 288.81 229.174 287.361 229.174 287.361L229.126 254.044L195.409 242.065Z" fill="#F9B497"/>
<path d="M229.431 284.02C219.499 285.947 185.866 277.197 185.866 277.197C185.866 277.197 165.89 279.183 144.92 294.194C120.483 311.686 130.463 380.748 127.693 451.467C127.625 453.209 243.578 451.467 243.578 451.467L246.024 401.028L247.235 410.979L296.675 387.923C296.675 387.923 288.058 324.916 276.922 308.816C272.705 302.708 229.431 284.02 229.431 284.02Z" fill="#FFBD59"/>
<path d="M242.503 353.248C244.517 390.673 214.971 394.93 214.971 394.93L213.627 447.594L243.797 446.965L246.024 401.028L247.235 410.979L296.675 387.923C296.675 387.923 296.378 385.76 295.828 382.148C285.81 385.353 253.945 392.125 242.503 353.248Z" fill="#F48116"/>
<path d="M250.623 220.086C248.644 211.547 255.753 211.496 248.725 189.861C248.725 189.861 206.489 155.289 181.25 191.989C163.235 218.184 195.688 241.728 195.688 241.728C209.713 268.411 240.233 268.626 246.765 266.355C253.297 264.085 249.054 257.24 252.831 251.547C254.216 249.466 249.515 252.852 246.834 248.346C245.7 246.439 247.387 245.05 247.725 245.062C253.322 245.254 254.811 244.976 255.065 243.299C255.186 242.499 251.72 237.639 254.815 236.174C257.91 234.709 258.357 232.061 257.317 230.981C254.757 228.329 251.871 225.465 250.623 220.086Z" fill="#F9B497"/>
<path d="M244.476 162.319C242.133 163.762 226.714 171.403 216.113 170.979C205.512 170.556 183.65 171.655 186.319 180.203C166.93 195.715 168.348 210.364 177.516 221.862C186.684 233.359 192.219 256.557 192.219 256.557C196.609 259.554 200.565 240.163 200.142 237.921C195.837 227.631 199.426 220.527 205.283 218.819C211.141 217.111 214.229 222.202 214.751 224.428C222.408 222.299 219.881 209.58 219.881 209.58C234.014 208.392 246.214 193.676 241.987 185.158C248.797 192.11 252.626 197.674 254.287 202.414C255.887 196.449 253.406 190.538 252.722 189.017C259.792 179.085 246.82 160.873 244.476 162.319Z" fill="#2B1710"/>
<path d="M246.878 207.257C244.04 206.802 236.83 206.345 235.032 210.728C234.356 212.379 237.578 211.764 239.55 211.167C241.522 210.569 245.98 211.683 247.649 211.445C249.318 211.207 249.714 207.711 246.878 207.257Z" fill="#AA492D"/>
<path d="M243.842 215.374C242.677 215.406 241.798 217.8 241.883 220.719C241.967 223.638 242.981 225.978 244.147 225.944C245.312 225.911 246.193 223.52 246.108 220.601C246.024 217.682 245.01 215.343 243.842 215.374Z" fill="#412016"/>
<g opacity="0.44">
<path d="M219.571 243.914L218.302 244.493C218.302 244.493 213.15 265.363 229.191 274.922L228.954 266.052C238.442 268.59 243.335 267.462 246.416 266.404C234.931 266.066 226.843 262.29 219.571 243.914Z" fill="#EE217F" fill-opacity="0.2"/>
</g>
<path d="M245.061 244.041C244.978 243.992 244.88 243.978 244.786 244.002C244.693 244.026 244.614 244.086 244.564 244.168C244.438 244.382 243.332 246.284 243.628 247.507C243.648 247.594 243.7 247.669 243.772 247.72C243.845 247.771 243.934 247.794 244.022 247.784H244.064C244.111 247.774 244.156 247.755 244.195 247.727C244.234 247.699 244.267 247.664 244.292 247.623C244.317 247.582 244.334 247.536 244.341 247.489C244.347 247.441 244.345 247.393 244.332 247.347C244.144 246.553 244.887 245.055 245.188 244.547C245.213 244.506 245.23 244.46 245.238 244.412C245.245 244.364 245.243 244.315 245.231 244.267C245.219 244.22 245.198 244.176 245.169 244.137C245.14 244.098 245.103 244.066 245.061 244.041Z" fill="#FF7171"/>
<path d="M121.065 318.149C116.205 338.543 105.937 369.487 105.937 369.487C105.937 369.487 142.911 388.986 149.91 384.175C155.086 380.616 158.773 370.36 160.592 363.947L159.166 286.516C145.628 293.076 125.931 297.756 121.065 318.149Z" fill="#FFBD59"/>
<path d="M160.594 364.074L160.69 363.596C160.659 363.712 160.625 363.832 160.592 363.948L160.594 364.074Z" fill="#FFBD59"/>
<path d="M160.69 363.596C162.228 358.089 162.314 355.704 160.69 363.596V363.596Z" fill="#FFBD59"/>
<path d="M276.241 433.062C268.039 434.586 262.97 430.826 262.921 430.787C262.823 430.716 262.7 430.686 262.58 430.703C262.46 430.719 262.35 430.782 262.275 430.877C262.238 430.926 262.211 430.981 262.195 431.039C262.18 431.098 262.176 431.16 262.185 431.22C262.193 431.28 262.213 431.338 262.244 431.39C262.275 431.442 262.316 431.488 262.365 431.524C262.541 431.662 266.173 434.359 272.316 434.359C273.688 434.355 275.057 434.226 276.406 433.973C276.466 433.962 276.523 433.94 276.574 433.907C276.625 433.874 276.669 433.831 276.704 433.781C276.739 433.73 276.763 433.674 276.775 433.614C276.788 433.555 276.789 433.493 276.778 433.433C276.752 433.315 276.682 433.211 276.582 433.142C276.483 433.073 276.361 433.044 276.241 433.062Z" fill="#160202"/>
<path d="M121.522 344.887C121.412 343.42 120.725 342.056 119.611 341.097C118.497 340.137 117.047 339.659 115.582 339.77C114.116 339.88 112.754 340.568 111.796 341.684C110.837 342.799 110.361 344.25 110.471 345.717L118.475 452.498C118.58 453.892 119.207 455.195 120.231 456.146C121.254 457.097 122.598 457.626 123.994 457.628C124.134 457.628 124.274 457.628 124.415 457.614C125.88 457.502 127.24 456.813 128.197 455.698C129.154 454.582 129.63 453.133 129.521 451.666L121.522 344.887Z" fill="#D8916C"/>
<path d="M210.515 326.769H116.568C108.837 326.769 102.75 332.939 103.375 340.136L113.642 486.249L234.146 486.539L223.707 338.135C223.149 331.714 217.409 326.769 210.515 326.769Z" fill="#EE217F"/>
<path d="M210.21 446.371L209.252 445.794L231.849 486.442L310.937 486.249L307.491 450.588L210.21 446.371Z" fill="#EE217F"/>
<g style="mix-blend-mode:multiply" opacity="0.49">
<path d="M211.379 326.661C204 326.95 198.271 332.949 198.878 339.974L209.03 458.138H234.15L223.827 337.973C223.287 331.745 217.922 326.947 211.379 326.661Z" fill="#FF775F"/>
</g>
<path d="M219.381 344.887C219.133 341.832 216.226 339.542 212.988 339.775C209.705 340.006 207.243 342.668 207.488 345.723L216.103 452.504C216.339 455.418 218.952 457.635 222.042 457.635C222.193 457.635 222.345 457.635 222.496 457.621C225.78 457.39 228.241 454.728 227.996 451.673L219.381 344.887Z" fill="white"/>
<path d="M317.752 441.334H222.948C221.479 441.334 220.069 441.919 219.03 442.959C217.991 444 217.407 445.411 217.407 446.882C217.407 448.353 217.991 449.764 219.03 450.805C220.069 451.845 221.479 452.43 222.948 452.43H317.752C319.222 452.43 320.631 451.845 321.67 450.805C322.709 449.764 323.293 448.353 323.293 446.882C323.293 445.411 322.709 444 321.67 442.959C320.631 441.919 319.222 441.334 317.752 441.334Z" fill="white"/>
<path d="M208.713 224.635C206.273 223.385 203.854 224.437 203.751 224.483L204.225 225.689C204.244 225.689 206.232 224.832 208.155 225.823C209.583 226.558 210.643 228.114 211.324 230.454C209.81 230.602 206.635 231.159 205.5 233.32L206.602 233.933C207.532 232.171 210.91 231.732 212.132 231.714L212.939 231.702L212.749 230.889C211.995 227.725 210.641 225.62 208.713 224.635Z" fill="#38261F"/>
<path d="M641.03 142.672C622.993 157.995 605.312 172.088 588.186 185.031C587.668 185.493 584.924 187.851 581.319 187.344C580.336 187.199 579.391 186.864 578.536 186.357L567.444 176.361C566.69 175.473 566.202 174.389 566.035 173.236C565.908 172.274 566.021 171.296 566.364 170.389C565.956 171.337 565.548 172.285 565.141 173.232C564.738 174.201 564.599 175.258 564.737 176.298C564.904 177.451 565.393 178.535 566.146 179.423L577.238 189.419C578.093 189.926 579.039 190.261 580.022 190.406C583.622 190.917 586.36 188.555 586.889 188.093C604.015 175.15 621.695 161.057 639.732 145.734C658.819 129.516 676.49 113.464 692.801 97.8224C693.321 97.2305 693.759 96.5705 694.102 95.8604C694.514 94.8791 694.925 93.8972 695.334 92.9147C695 93.5811 694.581 94.2015 694.088 94.7604C677.787 110.402 660.117 126.456 641.03 142.672Z" fill="#193584"/>
<path d="M695.706 92.0536C695.731 91.9969 695.756 91.9385 695.779 91.8765C695.766 91.8924 695.756 91.9084 695.743 91.9225C695.729 91.9686 695.72 92.02 695.706 92.0536Z" fill="#0F2554"/>
<path d="M566.685 169.653C566.706 169.612 566.724 169.566 566.745 169.525L566.685 169.653Z" fill="#0F2554"/>
<path d="M695.69 87.9242C695.69 87.9242 695.629 87.762 695.556 87.6016C695.213 86.833 688.73 73.4215 685.505 66.7492C685.314 66.3138 684.152 63.7524 682.033 63.4844C681.639 63.4439 681.242 63.4653 680.855 63.5479C679.506 63.8071 678.27 64.4762 677.316 65.4641C660.853 81.3683 644.068 97.3465 626.96 113.399C607.217 131.915 587.595 150.008 568.095 167.676C567.557 168.222 567.103 168.845 566.748 169.525C566.727 169.566 566.71 169.612 566.688 169.652C566.569 169.891 566.463 170.137 566.371 170.389C566.028 171.296 565.915 172.274 566.042 173.236C566.209 174.389 566.697 175.473 567.451 176.361L578.543 186.357C579.398 186.864 580.343 187.199 581.327 187.344C584.927 187.855 587.665 185.493 588.193 185.031C605.32 172.088 623 157.995 641.037 142.672C660.124 126.454 677.795 110.402 694.106 94.7604C694.599 94.2015 695.018 93.5811 695.352 92.9147C695.491 92.6354 695.611 92.3475 695.713 92.0527C695.727 92.0122 695.736 91.9681 695.75 91.9258C696.037 91.0891 696.135 90.1994 696.037 89.3203C695.98 88.8423 695.863 88.3733 695.69 87.9242Z" fill="#4DA4E0"/>
<path d="M746.065 240.595C734.508 246.021 722.514 251.358 710.084 256.605C679.851 269.313 650.715 279.719 623.127 288.274C622.914 288.35 621.622 288.775 620.351 288.062C619.776 287.736 619.312 287.245 619.018 286.652C612.98 269.313 607.649 255.207 603.587 244.815C599.161 233.491 595.949 225.83 594.715 222.905C592.281 217.132 589.83 211.504 587.364 206.019C586.776 206.227 586.177 206.444 585.589 206.65C585.203 206.876 584.777 207.024 584.334 207.087C586.981 212.963 589.614 218.998 592.232 225.19C593.465 228.114 596.678 235.767 601.104 247.1C605.166 257.5 610.496 271.603 616.533 288.937C616.829 289.528 617.293 290.019 617.866 290.347C619.139 291.052 620.43 290.634 620.645 290.559C648.233 282.004 677.367 271.598 707.601 258.89C720.033 253.665 732.028 248.328 743.586 242.88C743.824 242.764 744.047 242.618 744.248 242.446L746.864 240.045H746.849C746.617 240.268 746.353 240.453 746.065 240.595Z" fill="#193584"/>
<path d="M739.816 205.748C734.195 184.564 728.081 164.478 721.681 145.494C721.501 145.789 721.289 146.064 721.049 146.314L721.004 146.358C720.83 146.536 720.643 146.699 720.444 146.846L718.019 148.962C717.733 149.222 717.416 149.447 717.075 149.63C697.356 159.937 675.926 170.288 652.821 180.322C630.017 190.226 608.108 198.714 587.354 206.026C589.818 211.513 592.269 217.142 594.704 222.912C595.937 225.837 599.15 233.489 603.576 244.822C607.638 255.223 612.97 269.326 619.007 286.659C619.301 287.252 619.765 287.743 620.34 288.07C621.611 288.775 622.904 288.357 623.117 288.281C650.705 279.726 679.84 269.32 710.073 256.612C722.507 251.387 734.502 246.05 746.058 240.602C746.347 240.46 746.612 240.274 746.843 240.05C747.064 239.848 747.25 239.609 747.393 239.345C747.575 238.983 747.682 238.588 747.708 238.183C747.733 237.778 747.676 237.372 747.541 236.99C745.199 226.775 742.624 216.361 739.816 205.748Z" fill="#4DA4E0"/>
<path d="M655.612 177.916C632.159 188.1 609.646 196.8 588.37 204.249C588.227 204.336 587.007 205.057 585.748 204.512C585.327 204.324 584.963 204.029 584.691 203.657L579.902 193.034C579.768 192.838 579.66 192.624 579.584 192.398C579.455 191.986 579.422 191.55 579.487 191.123C579.6 190.593 579.889 190.117 580.307 189.773L577.629 192.093C577.156 192.444 576.827 192.955 576.701 193.531C576.637 193.958 576.67 194.394 576.798 194.806C576.849 194.906 577.386 196.04 581.904 206.056C582.175 206.43 582.539 206.725 582.961 206.913C583.391 207.097 583.864 207.158 584.327 207.089C584.77 207.026 585.196 206.877 585.582 206.652C586.17 206.446 586.769 206.229 587.357 206.021C608.112 198.709 630.02 190.221 652.825 180.317C675.927 170.288 697.361 159.935 717.083 149.628C717.423 149.445 717.74 149.22 718.026 148.96L720.451 146.845C720.265 146.984 720.069 147.11 719.864 147.22C700.145 157.529 678.717 167.88 655.612 177.916Z" fill="#193584"/>
<path d="M715.464 122.92C715.098 121.455 713.999 120.374 712.702 120.191C711.94 120.104 711.172 120.291 710.536 120.72C691.228 132.636 670.37 144.694 647.963 156.588C624.796 168.885 602.411 179.716 581.08 189.267C580.799 189.402 580.537 189.576 580.302 189.782C579.883 190.126 579.594 190.602 579.481 191.132C579.417 191.559 579.45 191.995 579.578 192.407C579.629 192.507 580.166 193.641 584.684 203.657C584.956 204.029 585.32 204.324 585.741 204.512C586.999 205.057 588.22 204.336 588.362 204.249C609.638 196.8 632.152 188.1 655.605 177.916C678.71 167.88 700.137 157.529 719.857 147.222C720.297 146.981 720.699 146.675 721.049 146.314C721.461 145.883 721.792 145.382 722.026 144.833C722.469 143.734 722.496 142.511 722.102 141.394L715.464 122.92Z" fill="#4DA4E0"/>
<path d="M624.398 172.346C621.615 170.921 618.696 169.525 615.637 168.159C607.405 164.501 598.908 161.474 590.218 159.103C588.921 158.643 587.54 158.468 586.169 158.592C585.472 158.661 584.784 158.805 584.117 159.021C581.082 160.055 576.74 162.206 577.841 165.961C580.512 176.198 584.037 186.192 588.378 195.839C588.554 196.225 588.871 197.459 589.977 198.234C591.692 199.437 594.102 198.763 595.384 198.374C599.481 197.113 611.287 192.701 626.9 186.427C627.453 186.154 629.469 185.073 630.182 182.801C630.629 181.38 630.358 180.157 630.182 179.409C629.219 175.371 625.571 173.037 624.398 172.346Z" fill="#F59014"/>
<path d="M586.411 163.637C585.713 163.842 585.092 164.25 584.625 164.809C584.158 165.367 583.867 166.052 583.789 166.776C583.711 167.501 583.85 168.232 584.187 168.877C584.524 169.523 585.044 170.054 585.683 170.403C586.321 170.752 587.049 170.904 587.773 170.839C588.498 170.774 589.187 170.496 589.754 170.039C590.32 169.582 590.739 168.967 590.956 168.272C591.174 167.576 591.18 166.832 590.975 166.134C590.7 165.197 590.065 164.408 589.209 163.939C588.354 163.471 587.347 163.363 586.411 163.637Z" fill="#EE217F"/>
<path d="M593.864 186.847C593.166 187.052 592.545 187.46 592.079 188.019C591.612 188.578 591.322 189.263 591.244 189.987C591.167 190.711 591.305 191.442 591.643 192.088C591.98 192.733 592.501 193.264 593.139 193.612C593.778 193.961 594.506 194.113 595.23 194.048C595.955 193.983 596.644 193.704 597.21 193.247C597.776 192.789 598.194 192.174 598.412 191.479C598.629 190.784 598.635 190.04 598.43 189.341C598.294 188.877 598.068 188.444 597.765 188.068C597.462 187.691 597.087 187.378 596.663 187.147C596.239 186.915 595.774 186.769 595.294 186.718C594.813 186.666 594.328 186.71 593.864 186.847Z" fill="#EE217F"/>
<path d="M618.423 177.315C617.725 177.52 617.103 177.928 616.636 178.486C616.169 179.045 615.879 179.73 615.801 180.454C615.722 181.178 615.861 181.909 616.198 182.555C616.535 183.2 617.056 183.731 617.694 184.081C618.333 184.43 619.06 184.582 619.785 184.517C620.509 184.452 621.199 184.173 621.765 183.716C622.332 183.259 622.75 182.644 622.967 181.949C623.185 181.254 623.191 180.51 622.986 179.811C622.712 178.874 622.077 178.085 621.221 177.617C620.365 177.149 619.358 177.04 618.423 177.315Z" fill="#EE217F"/>
<path d="M604.499 141.325C603.393 142.364 602.059 143.881 600.599 145.371L607.628 148.087C611.073 149.418 614.639 150.654 618.192 151.95C620.738 153.097 623.298 154.21 625.856 155.34C630.884 151.209 635.941 146.986 641.03 142.672C642.532 141.396 644.011 140.121 645.497 138.847L618.764 127.741C614.012 132.275 609.285 136.83 604.499 141.325Z" fill="white"/>
<path d="M648.701 99.4231L677.96 109.938C683.477 104.84 688.858 99.7786 694.104 94.7534C694.959 93.7915 695.574 92.6399 695.898 91.3935L668.5 80.7443C661.665 86.7061 655.249 93.1281 648.701 99.4231Z" fill="white"/>
<path d="M624.467 122.34L651.629 133.546C658.296 127.743 664.784 121.971 671.093 116.232L643.077 104.791C636.897 110.665 630.677 116.492 624.467 122.34Z" fill="white"/>
<path d="M657.469 173.502C664.32 170.505 671.127 167.415 677.874 164.147C679.002 163.6 680.129 163.051 681.255 162.499C681.305 154.358 681.357 146.217 681.409 138.075C673.584 142.583 665.538 147.083 657.271 151.576L657.469 173.502Z" fill="white"/>
<path d="M647.963 156.579C642.487 159.486 637.056 162.307 631.672 165.041C631.849 171.461 632.025 177.88 632.2 184.298C633.452 183.753 634.746 183.27 636.074 182.75C640.333 181.077 644.477 179.104 648.684 177.304C649.972 176.753 651.256 176.194 652.541 175.639C652.5 168.485 652.461 161.332 652.423 154.18C650.936 154.985 649.462 155.784 647.963 156.579Z" fill="white"/>
<path d="M710.537 120.711C703.142 125.273 695.521 129.85 687.676 134.441C687.947 142.615 688.217 150.789 688.486 158.962C693.799 156.353 699.115 153.743 704.459 151.194C707.327 149.824 710.23 148.47 713.1 147.047L712.683 120.189C711.928 120.105 711.168 120.29 710.537 120.711Z" fill="white"/>
<path d="M724.632 220.421C720.935 222.241 717.224 224.032 713.501 225.794C706.003 229.345 698.455 232.792 690.859 236.137C690.181 236.435 689.501 236.727 688.823 237.018C688.018 233.933 687.193 230.854 686.348 227.781C685.467 224.567 684.723 221.259 683.654 218.098C692.223 214.29 700.733 210.362 709.184 206.313C713.719 204.139 718.234 201.928 722.729 199.678C724.512 198.786 726.347 197.915 728.171 197.016C727.872 195.892 727.558 194.772 727.25 193.649C725.877 194.355 724.509 195.074 723.141 195.765C719.122 197.763 715.092 199.741 711.05 201.7C704.477 204.898 697.868 208.022 691.225 211.071C691.137 210.435 690.873 209.786 690.697 209.15C690.309 207.74 689.934 206.34 689.554 204.937C688.792 202.129 688.031 199.32 687.306 196.502C685.916 191.099 684.629 185.671 683.399 180.229C686.67 178.801 689.94 177.371 693.195 175.905C701.475 172.172 709.709 168.334 717.896 164.39C717.443 163.248 717.001 162.102 716.57 160.953C701.227 168.438 685.719 175.548 670.044 182.283C653.432 189.42 636.564 195.932 619.577 202.114C614.76 203.877 609.92 205.561 605.096 207.295C603.597 207.835 602.064 208.353 600.53 208.871C600.733 209.753 600.925 210.634 601.124 211.507C602.203 211.154 603.277 210.802 604.34 210.468C608.625 209.105 612.888 207.685 617.13 206.208C622.799 204.247 628.444 202.219 634.064 200.122C636.091 206.276 638.084 212.445 639.982 218.632C640.94 221.756 641.864 224.89 642.799 228.021C643.151 229.167 643.385 230.575 643.855 231.758C641.521 232.713 639.191 233.683 636.846 234.617C632.175 236.481 627.479 238.279 622.794 240.108C619.463 241.411 615.979 242.576 612.69 244.078C612.941 244.766 613.188 245.455 613.436 246.144C616.429 245.281 619.357 244.112 622.261 243.061C626.486 241.535 630.666 239.915 634.85 238.302C643.215 235.06 651.545 231.727 659.841 228.301C666.943 225.377 674.005 222.359 681.027 219.247C681.731 222.389 682.737 225.495 683.594 228.59C683.62 228.682 683.647 228.767 683.672 228.865C675.764 232.461 667.841 235.999 659.783 239.266C650.014 243.227 640.126 246.872 630.159 250.301C627.434 251.239 624.69 252.127 621.965 253.067C620.176 253.682 618.303 254.215 616.507 254.881L617.31 257.21C618.787 256.834 620.25 256.371 621.694 255.953C624.201 255.226 626.689 254.433 629.173 253.631C634.228 251.999 639.249 250.266 644.248 248.47C654.33 244.844 664.298 240.924 674.151 236.708C677.646 235.213 681.129 233.685 684.601 232.125C685.163 234.127 685.721 236.13 686.302 238.118C672.523 244.145 658.668 249.987 644.655 255.454C640.253 257.167 635.851 258.837 631.437 260.517C629.233 261.356 627.025 262.188 624.814 263.013C623.188 263.617 621.488 264.102 620.06 265.042C620.253 265.581 620.445 266.119 620.641 266.655C622.125 266.503 623.53 265.925 624.965 265.421C627.019 264.716 629.073 263.999 631.127 263.272C635.059 261.886 638.973 260.451 642.878 258.992C650.692 256.076 658.468 253.065 666.206 249.957C681.595 243.778 696.801 237.176 711.823 230.152C716.042 228.178 720.243 226.168 724.428 224.123C727.583 222.581 730.942 221.137 734.036 219.364L733.201 216.175C730.273 217.44 727.454 219.032 724.632 220.421ZM646.415 230.727L646.329 230.402C645.922 228.915 645.489 227.432 645.061 225.95C644.181 222.895 643.244 219.859 642.31 216.822C640.495 210.914 638.604 205.03 636.638 199.171C638.751 198.38 640.861 197.58 642.966 196.773C655.71 191.891 668.348 186.747 680.879 181.34C682.053 186.674 683.319 191.985 684.677 197.272C685.402 200.092 686.14 202.913 686.925 205.707C687.316 207.109 687.726 208.505 688.138 209.901C688.364 210.666 688.491 211.505 688.899 212.147C688.159 212.485 687.425 212.834 686.686 213.171C673.357 219.246 659.953 225.14 646.415 230.727Z" fill="white"/>
<path d="M735.189 230.443C731.179 232.441 727.149 234.395 723.101 236.304C714.964 240.152 706.756 243.842 698.476 247.373C681.993 254.399 665.26 260.791 648.277 266.549C640.109 269.32 631.809 271.802 623.669 274.676C623.958 275.398 624.252 276.119 624.55 276.837C631.807 275.053 638.987 272.721 646.046 270.381C654.548 267.568 662.995 264.591 671.387 261.451C688.209 255.154 704.775 248.22 721.086 240.65C725.638 238.534 730.167 236.376 734.672 234.175C735.637 233.702 736.617 233.239 737.602 232.775C737.318 231.732 737.038 230.684 736.756 229.641C736.232 229.912 735.712 230.184 735.189 230.443Z" fill="white"/>
<path d="M585.523 165.994C584.074 166.421 584.732 168.677 586.185 168.251C587.637 167.824 586.973 165.568 585.523 165.994Z" fill="white"/>
<path d="M593.009 188.937C591.306 189.438 592.081 192.089 593.787 191.582C595.493 191.074 594.715 188.435 593.009 188.937Z" fill="white"/>
<path d="M617.021 181.313C617.713 182.422 619.662 181.706 618.958 180.114C618.264 179.004 616.313 179.723 617.021 181.313Z" fill="white"/>
<path d="M593.803 327.992C592.926 327.734 592.01 327.635 591.099 327.701C596.534 329.885 599.161 338.079 596.969 346.489C595.032 353.904 589.99 359.072 584.917 359.391C585.128 359.476 585.336 359.568 585.554 359.638C591.428 361.412 598.034 355.76 600.311 347.027C602.587 338.294 599.675 329.765 593.803 327.992Z" fill="#1A4499"/>
<path d="M602.053 366.977C601.083 366.688 600.073 366.552 599.06 366.575C606.29 369.064 609.841 379.715 606.983 390.652C604.469 400.298 597.809 406.97 591.209 407.093C591.327 407.134 591.438 407.192 591.562 407.227C599.03 409.484 607.432 402.302 610.33 391.186C613.229 380.069 609.522 369.233 602.053 366.977Z" fill="#1A4499"/>
<path d="M537.23 328.447C526.71 368.807 540.169 408.165 567.289 416.357C569.293 416.956 571.347 417.374 573.427 417.605C572.493 417.404 571.56 417.173 570.632 416.9C543.518 408.708 530.054 369.35 540.572 328.99C550.305 291.652 577.149 266.56 602.587 269.495C576.198 263.818 547.397 289.467 537.23 328.447Z" fill="#FCEBC2"/>
<path d="M606.392 279.691C605.421 279.401 604.411 279.265 603.399 279.289C610.628 281.778 614.179 292.429 611.322 303.366C608.808 313.012 602.147 319.684 595.548 319.807C595.666 319.848 595.777 319.906 595.9 319.941C603.369 322.198 611.771 315.016 614.669 303.9C617.567 292.783 613.861 281.947 606.392 279.691Z" fill="#1A4499"/>
<path d="M626.316 320.595C625.345 320.306 624.335 320.169 623.323 320.192C630.552 322.681 634.103 333.332 631.246 344.268C628.731 353.914 622.071 360.588 615.472 360.712C615.59 360.752 615.701 360.809 615.824 360.844C623.293 363.101 631.696 355.919 634.593 344.802C637.489 333.686 633.785 322.85 626.316 320.595Z" fill="#1A4499"/>
<path d="M568.865 303.242C567.894 302.952 566.884 302.817 565.871 302.84C573.101 305.328 576.652 315.979 573.794 326.915C571.28 336.561 564.62 343.234 558.021 343.359C558.138 343.399 558.249 343.456 558.373 343.493C565.841 345.747 574.243 338.557 577.14 327.451C580.036 316.345 576.333 305.497 568.865 303.242Z" fill="#1A4499"/>
<path d="M566.995 354.42C566.024 354.131 565.014 353.995 564.002 354.018C571.231 356.506 574.782 367.157 571.925 378.093C569.411 387.739 562.75 394.414 556.151 394.537C556.269 394.577 556.38 394.634 556.503 394.671C563.972 396.926 572.374 389.735 575.272 378.629C578.17 367.523 574.464 356.677 566.995 354.42Z" fill="#1A4499"/>
<path d="M608.727 270.737C606.721 270.139 604.667 269.72 602.587 269.488C577.149 266.553 550.305 291.644 540.572 328.983C530.054 369.343 543.511 408.701 570.633 416.893C571.56 417.173 572.494 417.404 573.427 417.598C599.818 423.267 628.626 397.618 638.785 358.64C649.305 318.288 635.847 278.929 608.727 270.737ZM587.623 295.732C590.137 286.086 596.798 279.412 603.397 279.289C604.41 279.265 605.42 279.401 606.39 279.691C613.859 281.947 617.565 292.787 614.666 303.901C611.766 315.016 603.365 322.198 595.897 319.943C595.777 319.908 595.666 319.85 595.544 319.809C588.324 317.32 584.773 306.669 587.623 295.732ZM575.274 378.629C572.376 389.735 563.974 396.925 556.505 394.671C556.385 394.634 556.274 394.577 556.153 394.537C548.923 392.048 545.372 381.397 548.23 370.46C550.744 360.814 557.405 354.142 564.004 354.018C565.016 353.995 566.026 354.13 566.997 354.42C574.464 356.677 578.17 367.515 575.274 378.629ZM577.142 327.451C574.245 338.557 565.844 345.747 558.375 343.493C558.255 343.456 558.144 343.399 558.023 343.359C550.793 340.869 547.242 330.219 550.099 319.282C552.614 309.636 559.274 302.964 565.873 302.84C566.886 302.817 567.896 302.952 568.867 303.242C576.334 305.497 580.04 316.336 577.142 327.451ZM579.047 340.603C580.984 333.191 586.026 328.022 591.099 327.701C592.01 327.635 592.926 327.734 593.803 327.992C599.675 329.765 602.589 338.287 600.318 347.031C598.046 355.774 591.435 361.415 585.561 359.642C585.343 359.575 585.135 359.48 584.924 359.395C579.482 357.207 576.855 349.015 579.047 340.603ZM610.332 391.187C607.434 402.302 599.032 409.484 591.564 407.229C591.444 407.194 591.333 407.136 591.211 407.095C583.982 404.608 580.431 393.957 583.288 383.02C585.803 373.374 592.463 366.7 599.062 366.577C600.075 366.554 601.085 366.689 602.055 366.979C609.523 369.233 613.229 380.073 610.332 391.187ZM634.595 344.808C631.698 355.913 623.295 363.104 615.826 360.849C615.706 360.814 615.595 360.758 615.474 360.717C608.244 358.228 604.693 347.577 607.551 336.641C610.065 326.994 616.726 320.322 623.325 320.197C624.337 320.175 625.347 320.311 626.318 320.601C633.785 322.85 637.491 333.69 634.595 344.808Z" fill="#F26522"/>
<path d="M608.815 295.458C608.38 295.327 607.945 295.22 607.508 295.116L607.417 295.087C590.148 291.033 571.171 307.78 564.512 333.316C557.964 358.443 565.718 382.96 581.874 389.666H581.89C582.594 389.959 583.315 390.23 584.052 390.452C584.79 390.675 585.542 390.847 586.29 390.994L605.348 396.744C588.325 390.83 579.994 365.69 586.706 339.907C593.331 314.492 612.153 297.79 629.349 301.612L609.859 295.805C609.512 295.692 609.168 295.563 608.815 295.458Z" fill="#648AF5"/>
<path d="M532.471 430.634C520.131 433.862 510.246 424.75 509.656 424.188L509.706 424.221C509.177 423.81 508.626 423.378 508.058 422.906C500.469 416.583 498.534 412.08 493.083 406.279C487.533 400.374 482.058 397.077 478.821 395.157C473.929 392.261 462.926 385.34 448.694 386.188C437.968 386.828 427.638 390.371 417.638 394.309C418.138 400.426 418.737 406.676 419.435 413.057C419.922 417.485 420.446 421.842 421.006 426.127C428.674 422.178 437.023 419.725 445.606 418.899C450.536 418.428 462.393 417.429 475.069 422.634C479.168 424.318 479.832 425.307 490.097 430.121C494.039 431.97 498.796 434.11 505.13 435.799C507.028 436.305 508.6 436.644 509.618 436.848C511.956 436.64 515.252 436.293 519.189 435.692C525.694 434.699 528.923 434.147 532.188 432.831C534.915 431.731 539.142 429.425 543.358 424.126C540.96 426.581 537.361 429.356 532.471 430.634Z" fill="#4DA4E0"/>
<path d="M530.084 378.858C527.309 377.388 525.274 376.47 522.513 375.232C508.186 368.805 501.967 367.899 493.932 361.694C489.731 358.452 488.403 356.213 488.225 353.922C487.91 349.856 491.308 345.379 491.477 345.192C493.872 342.22 500.772 334.374 511.197 331.453C508.748 332.029 506.267 332.628 503.763 333.284C495.749 335.373 488.186 337.679 481.091 340.105C479.851 340.501 478.637 340.972 477.453 341.515C473.266 343.429 467.468 346.072 464.755 351.997C462.269 357.426 462.938 364.384 466.386 368.904C468.322 371.453 470.715 372.646 472.009 373.276C485.021 379.604 501.716 386.352 506.804 388.591C513.216 391.411 519.692 394.273 525.291 398.487C530.89 402.702 535.614 408.456 537.246 415.277C537.813 417.651 537.984 420.212 537.07 422.479C535.017 427.553 527.642 428.165 525.337 428.408C517.93 429.19 512.112 425.829 509.713 424.225L509.663 424.191C510.253 424.753 520.138 433.865 532.478 430.638C537.362 429.36 540.967 426.583 543.359 424.129C544.666 422.798 545.827 421.331 546.823 419.752C548.465 417.108 549.15 414.794 549.555 413.508C551.844 406.251 551.897 397.883 547.794 391.473C544.755 386.731 539.922 384.071 530.084 378.858Z" fill="#648AF5"/>
<path d="M514.032 330.788C513.056 330.964 512.116 331.193 511.193 331.453C512.141 331.234 513.095 331 514.032 330.788Z" fill="url(#paint0_linear_124_587)"/>
<path d="M591.836 385.691C591.745 385.673 591.66 385.631 591.57 385.608C577.693 368.333 566.616 355.973 561.565 351.187C558.806 348.593 555.892 346.168 552.84 343.926C550.405 342.189 547.878 340.586 545.27 339.123C527.962 329.295 516.477 330.455 516.477 330.455C515.648 330.532 514.834 330.645 514.04 330.788C513.104 330.999 512.149 331.23 511.202 331.453C500.779 334.374 493.879 342.22 491.482 345.192C495.884 340.873 498.877 339.63 500.413 339.198C500.527 339.167 500.8 339.094 501.133 339.01C502.504 338.657 505.358 338.007 508.186 337.924C513.801 337.76 519.226 339.879 524.277 342.331C538.593 349.319 550.671 362 564.299 375.022C567.511 378.091 570.303 380.75 572.47 382.809C573.561 384.045 574.758 385.182 576.048 386.208L576.124 386.28L576.161 386.29C577.901 387.672 579.821 388.809 581.869 389.67H581.885C582.589 389.962 583.309 390.234 584.047 390.456C584.785 390.678 585.536 390.851 586.285 390.997L605.342 396.747C599.874 394.852 595.303 390.953 591.836 385.691Z" fill="#4DA4E0"/>
<path opacity="0.75" d="M498.978 339.031C502.485 337.302 506.792 335.942 510.797 335.752C512.468 334.811 514.121 333.836 515.792 332.898C508.683 333.411 502.349 335.972 496.83 340.159C497.553 339.755 498.273 339.375 498.978 339.031Z" fill="#CCDCFF"/>
<path opacity="0.75" d="M514.1 335.851C518.363 336.283 522.564 337.79 526.522 339.747C528.571 338.571 530.638 337.429 532.721 336.32C528.495 334.497 524.094 333.147 519.534 332.873C517.688 333.799 515.891 334.818 514.1 335.851Z" fill="#CCDCFF"/>
<path opacity="0.75" d="M534.72 337.228C532.58 338.35 530.462 339.519 528.362 340.711C530.777 342.017 533.093 343.468 535.255 344.92C536.412 345.698 537.544 346.516 538.648 347.353C541.067 346.04 543.461 344.681 545.867 343.334C544.481 342.495 543.09 341.67 541.688 340.875C539.424 339.586 537.097 338.343 534.72 337.228Z" fill="#CCDCFF"/>
<path opacity="0.75" d="M540.146 348.489C543.373 351.064 546.46 353.811 549.395 356.716C552.508 355.349 555.61 353.941 558.601 352.33C555.111 349.412 551.417 346.748 547.548 344.356C545.081 345.735 542.623 347.129 540.146 348.489Z" fill="#CCDCFF"/>
<path opacity="0.75" d="M560.008 353.542C557.003 355.198 553.881 356.642 550.74 358.029C551.74 359.029 552.732 360.037 553.714 361.052C555.679 363.086 557.612 365.145 559.54 367.211C563.16 366.492 566.789 365.759 570.33 364.722C568.257 362.156 566.13 359.638 563.861 357.257C562.627 355.965 561.343 354.727 560.008 353.542Z" fill="#CCDCFF"/>
<path opacity="0.75" d="M560.935 368.706C564.269 372.285 567.615 375.849 571.051 379.334C574.629 379.31 578.209 379.172 581.792 379.234C578.27 374.982 574.96 370.533 571.522 366.189C568.05 367.25 564.489 367.996 560.935 368.706Z" fill="#CCDCFF"/>
<path opacity="0.75" d="M583.256 381.007C579.76 380.879 576.256 381.007 572.754 381.055C576.597 384.829 580.89 388.116 585.535 390.842C585.787 390.897 586.038 390.955 586.29 391.004L595.446 393.765C590.988 389.975 587.091 385.529 583.256 381.007Z" fill="#CCDCFF"/>
<path opacity="0.75" d="M477.45 341.511H477.436C477.219 341.851 476.909 342.121 476.543 342.289C476.265 342.419 473.154 344.341 470.467 346.994C471.613 346.68 472.756 346.385 473.913 346.095C478.947 344.813 484.028 343.729 489.092 342.569C492.789 336.766 498.533 334.763 499.946 334.308C493.344 336.119 487.042 338.061 481.088 340.096C479.848 340.494 478.633 340.967 477.45 341.511Z" fill="#CCDCFF"/>
<path opacity="0.75" d="M486.605 357.216C485.355 353.453 485.998 349.84 486.861 347.265C483.646 347.986 480.431 348.7 477.23 349.481C474.71 350.096 472.185 350.736 469.706 351.496C468.696 351.806 467.692 352.153 466.713 352.553C465.324 356.816 466.602 361.896 468.715 365.246C469.631 366.695 471.154 368.533 478.927 372.835L479.26 373.011C483.255 369.864 487.296 366.767 491.461 363.844C489.259 362.083 487.533 360.03 486.605 357.216Z" fill="#CCDCFF"/>
<path opacity="0.75" d="M495.104 366.348C491.055 369.131 487.126 372.098 483.253 375.127C488.149 377.617 491.673 379.056 491.974 379.181C496.338 380.944 499.928 382.368 502.941 383.553C506.047 380.203 509.204 376.745 512.688 373.736C504.922 370.956 503.24 370.942 498.486 368.297C497.298 367.636 496.173 366.998 495.104 366.348Z" fill="#CCDCFF"/>
<path opacity="0.75" d="M517.13 375.385C515.546 376.667 514.032 378.069 512.598 379.458C510.692 381.303 508.869 383.23 507.056 385.164C515.959 388.642 518.361 389.559 522.564 392.273C523.247 392.716 523.884 393.155 524.501 393.578C526.48 392.116 528.902 391.031 530.804 390.015C533.304 388.686 535.647 386.99 538.065 385.414C536.568 384.512 534.839 383.549 532.733 382.384C531.247 381.564 526.444 378.968 517.13 375.385Z" fill="#CCDCFF"/>
<path opacity="0.75" d="M541.71 387.921C538.766 389.684 536.038 391.834 533.014 393.467C531.378 394.348 529.711 395.182 528.14 396.182C528.101 396.204 528.064 396.231 528.027 396.256C531.535 399.173 533.512 401.72 534.859 403.804C536.047 405.648 537.614 408.084 538.519 410.921C541.947 409.662 545.583 408.981 549.145 408.07C549.201 407.675 549.266 407.282 549.3 406.878C549.77 401.343 548.029 395.431 544.697 391.002C543.832 389.856 542.828 388.822 541.71 387.921Z" fill="#CCDCFF"/>
<path opacity="0.75" d="M539.174 414.178C540.377 417.505 539.968 421.263 538.269 424.464C537.994 424.976 537.687 425.47 537.352 425.945C537.528 425.984 537.704 426.009 537.88 426.049C542.757 421.91 546.884 416.963 548.566 410.917C545.361 411.657 542.127 412.327 539.109 413.514C539.141 413.734 539.155 413.956 539.174 414.178Z" fill="#CCDCFF"/>
<path opacity="0.75" d="M441.036 390.611C434.794 391.589 428.535 393.255 422.746 395.88C423.601 403.763 424.682 411.619 425.605 419.502C427.11 418.961 428.667 418.574 430.25 418.345C434.496 416.475 439.085 415.317 443.631 414.681C448.959 413.925 454.371 413.989 459.679 414.869L457.128 390.19C451.807 389.476 446.429 389.76 441.036 390.611Z" fill="#CCDCFF"/>
<path opacity="0.75" d="M463.588 391.588C464.364 396.24 464.449 400.964 464.901 405.68C465.253 409.283 465.958 412.826 466.241 416.403C471.523 417.974 476.575 420.248 481.457 422.832C481.772 422.998 482.084 423.174 482.397 423.343C481.834 415.528 481.693 407.675 480.461 399.929C475.289 396.384 469.733 393.447 463.588 391.588Z" fill="#CCDCFF"/>
<path opacity="0.75" d="M483.11 401.809C484.121 409.389 484.228 417.071 484.845 424.702C488.542 426.798 492.199 429.019 496.011 430.872C496.969 426.007 498.087 421.177 499.004 416.302C498.228 415.363 497.451 414.422 496.669 413.482C492.345 409.366 487.885 405.347 483.11 401.809Z" fill="#CCDCFF"/>
<path opacity="0.75" d="M504.302 422.41C503.464 421.518 502.645 420.598 501.837 419.662C500.988 423.842 499.874 427.964 498.502 432.002C498.846 432.15 499.189 432.303 499.536 432.443C502.635 433.687 505.852 434.542 509.091 435.33C510.03 433.402 511.055 431.521 512.165 429.689C510.999 428.844 509.877 427.938 508.804 426.976C507.214 425.545 505.711 424.021 504.302 422.41Z" fill="#CCDCFF"/>
<path opacity="0.75" d="M514.399 431.138C513.436 432.725 512.475 434.311 511.563 435.921C512.267 436.097 512.972 436.259 513.676 436.432C515.317 436.242 517.164 436 519.183 435.692C521.902 435.277 524.036 434.939 525.853 434.59C522.983 434.315 520.164 433.653 517.472 432.621C516.409 432.212 515.381 431.716 514.399 431.138Z" fill="#CCDCFF"/>
<path d="M632.38 302.526L632.332 302.511C631.895 302.348 631.452 302.192 631.008 302.056C630.456 301.89 629.903 301.746 629.349 301.622C612.153 297.8 593.331 314.503 586.706 339.918C579.987 365.701 588.325 390.84 605.348 396.755C605.647 396.859 605.941 396.971 606.246 397.063C606.55 397.155 606.866 397.227 607.175 397.306H607.184C624.573 401.768 643.831 384.967 650.548 359.199C657.205 333.658 649.085 308.739 632.38 302.526Z" fill="#4DA4E0"/>
<path d="M626.004 333.36C625.127 333.102 624.211 333.003 623.299 333.069C628.735 335.253 631.362 343.447 629.17 351.857C627.233 359.272 622.19 364.44 617.118 364.759C617.329 364.844 617.537 364.936 617.757 365.004C623.629 366.779 630.235 361.126 632.513 352.395C634.791 343.664 631.876 335.133 626.004 333.36Z" fill="#1A4499"/>
<path d="M634.255 372.346C633.284 372.056 632.274 371.92 631.262 371.943C638.491 374.432 642.042 385.083 639.185 396.019C636.67 405.666 630.01 412.338 623.411 412.461C623.529 412.502 623.64 412.56 623.763 412.595C631.232 414.852 639.634 407.67 642.532 396.554C645.43 385.437 641.724 374.599 634.255 372.346Z" fill="#1A4499"/>
<path d="M569.432 333.815C558.911 374.183 572.37 413.533 599.49 421.725C601.495 422.324 603.55 422.742 605.629 422.973C604.693 422.772 603.761 422.541 602.834 422.268C575.719 414.076 562.255 374.717 572.773 334.358C582.506 297.019 609.35 271.927 634.788 274.862C608.399 269.183 579.591 294.835 569.432 333.815Z" fill="#FCEBC2"/>
<path d="M638.6 285.059C637.63 284.769 636.62 284.633 635.607 284.657C642.836 287.146 646.388 297.797 643.53 308.733C641.016 318.379 634.355 325.052 627.758 325.175C627.874 325.216 627.985 325.274 628.11 325.309C635.579 327.566 643.981 320.384 646.879 309.267C649.777 298.151 646.062 287.315 638.6 285.059Z" fill="#1A4499"/>
<path d="M658.517 325.963C657.546 325.673 656.536 325.537 655.524 325.561C662.753 328.049 666.304 338.7 663.447 349.636C660.933 359.282 654.272 365.956 647.673 366.08C647.791 366.12 647.902 366.177 648.025 366.214C655.494 368.468 663.898 361.287 666.794 350.172C669.69 339.057 665.986 328.22 658.517 325.963Z" fill="#1A4499"/>
<path d="M601.066 308.61C600.095 308.32 599.085 308.184 598.073 308.208C605.302 310.695 608.853 321.346 605.996 332.283C603.481 341.929 596.821 348.603 590.222 348.726C590.34 348.767 590.451 348.823 590.574 348.86C598.041 351.115 606.445 343.924 609.343 332.819C612.241 321.713 608.535 310.865 601.066 308.61Z" fill="#1A4499"/>
<path d="M599.196 359.792C598.225 359.502 597.215 359.366 596.203 359.39C603.432 361.877 606.984 372.528 604.126 383.465C601.612 393.111 594.951 399.785 588.352 399.908C588.47 399.949 588.581 400.005 588.704 400.042C596.173 402.297 604.575 395.117 607.473 384C610.371 372.884 606.665 362.045 599.196 359.792Z" fill="#1A4499"/>
<path d="M640.927 276.105C638.922 275.506 636.868 275.088 634.788 274.855C609.35 271.92 582.506 297.012 572.773 334.351C562.255 374.719 575.712 414.069 602.833 422.261C603.761 422.541 604.693 422.772 605.629 422.966C632.018 428.635 660.827 402.986 670.986 364.008C681.506 323.654 668.047 284.297 640.927 276.105ZM619.824 301.1C622.338 291.454 628.999 284.78 635.598 284.657C636.61 284.633 637.62 284.769 638.591 285.059C646.06 287.315 649.766 298.155 646.866 309.269C643.966 320.384 635.566 327.565 628.097 325.311C627.978 325.276 627.867 325.217 627.745 325.177C620.525 322.688 616.973 312.037 619.824 301.1ZM607.474 383.997C604.576 395.113 596.174 402.293 588.706 400.039C588.586 400.002 588.475 399.945 588.353 399.905C581.124 397.415 577.573 386.765 580.43 375.828C582.945 366.182 589.605 359.51 596.204 359.386C597.217 359.363 598.227 359.498 599.197 359.788C606.665 362.044 610.371 372.882 607.474 383.997ZM609.344 332.82C606.446 343.926 598.042 351.117 590.575 348.862C590.456 348.825 590.345 348.769 590.223 348.728C582.994 346.239 579.443 335.588 582.3 324.652C584.814 315.005 591.475 308.333 598.074 308.21C599.087 308.186 600.097 308.322 601.067 308.612C608.534 310.865 612.241 321.704 609.344 332.82ZM611.248 345.973C613.184 338.569 618.227 333.392 623.299 333.071C624.211 333.005 625.127 333.103 626.004 333.362C631.876 335.135 634.79 343.657 632.518 352.4C630.247 361.144 623.634 366.785 617.762 365.01C617.542 364.944 617.334 364.849 617.123 364.765C611.682 362.575 609.056 354.383 611.248 345.971V345.973ZM642.533 396.566C639.635 407.672 631.233 414.862 623.764 412.607C623.645 412.572 623.534 412.514 623.412 412.474C616.183 409.986 612.631 399.335 615.489 388.399C618.003 378.753 624.664 372.078 631.263 371.955C632.276 371.932 633.286 372.068 634.256 372.359C641.723 374.599 645.429 385.441 642.533 396.555V396.566ZM666.795 350.182C663.899 361.288 655.495 368.479 648.026 366.224C647.907 366.187 647.796 366.131 647.674 366.09C640.445 363.601 636.894 352.95 639.751 342.014C642.266 332.367 648.926 325.695 655.525 325.572C656.538 325.548 657.548 325.684 658.518 325.974C665.985 328.22 669.692 339.057 666.795 350.172V350.182Z" fill="#FFBD59"/>
<path d="M419.8 355.764C413.622 355.919 405.891 358.431 405.891 358.431L408.942 360.171C408.942 360.171 414.773 358.741 419.291 358.083C423.809 357.426 426.862 357.731 426.862 357.731L426.089 356.571C426.089 356.571 425.67 355.647 419.8 355.764Z" fill="#21427C"/>
</g>
<defs>
<linearGradient id="paint0_linear_124_587" x1="519.708" y1="309.999" x2="533.918" y2="267.807" gradientUnits="userSpaceOnUse">
<stop offset="0.03" stop-color="#232323"/>
<stop offset="0.54" stop-color="#383838"/>
<stop offset="0.97" stop-color="#252525"/>
</linearGradient>
<clipPath id="clip0_124_587">
<rect width="824" height="550" fill="white"/>
</clipPath>
</defs>
</svg>
